<svg xmlns="http://www.w3.org/2000/svg" width="36" height="36" viewBox="0 0 36 36">
    <g fill="none" fill-rule="evenodd">
        <path fill="#3FCBFF" d="M17.107 4.58L16.4 6.11l-.067.143c-1.133 2.389-2.055 3.732-3.68 5.074l-.469.383-.348.3-.19.167c-.555.495-1.11 1.027-1.632 1.578-.606.64-1.127 1.268-1.539 1.872-.327.48-.581.941-.755 1.386-1.753 4.796-.22 9.972 3.813 12.876 4.59 3.306 10.824 2.63 14.66-1.356.368-.39.885-1.043 1.4-1.901C28.47 25.174 29 23.644 29 22.096c0-4.316-1.32-7.769-3.966-10.292-.637-.607-1.69-.156-1.69.724l-.004.322c-.039 1.802-.412 3.172-1.117 4.153l-.104.135.007-.049c.097-.761.137-1.616.137-2.794 0-3.878-1.119-7.727-3.563-10.024-.498-.467-1.306-.31-1.593.31zm1.164 2.25l.015.021c1.321 1.916 1.977 4.668 1.977 7.444l-.004.617c-.016 1.065-.078 1.793-.203 2.482l-.105.517c-.06.272-.12.504-.325 1.281-.207.789.566 1.48 1.327 1.187l.248-.1c2.03-.87 3.312-2.531 3.85-4.901l.075-.366.166.258C26.43 17.118 27 19.386 27 22.096c0 1.133-.417 2.333-1.121 3.506-.253.422-.525.808-.796 1.15l-.239.29c-.042.049-.075.086-.1.111-3.148 3.273-8.272 3.829-12.043 1.113-3.298-2.375-4.55-6.604-3.11-10.546.106-.27.29-.603.537-.967.345-.506.8-1.055 1.34-1.624.358-.38.738-.752 1.122-1.108l.386-.35c.22-.196.405-.355.54-.467l.137-.114c1.958-1.552 3.074-3.074 4.31-5.611l.308-.649z"/>
    </g>
</svg>
