<svg width="22" height="22" viewBox="0 0 22 22" fill="none" xmlns="http://www.w3.org/2000/svg">
<rect x="3.4375" y="7.5625" width="15.125" height="11" rx="2.0625" stroke="black" stroke-width="1.375"/>
<path d="M5.66479 3.82055C4.81251 6.01943 6.90836 7.56249 11.3438 7.56249L10.3202 5.14055C8.95547 2.02664 6.27852 2.23712 5.66479 3.82055Z" stroke="black" stroke-width="1.375"/>
<path d="M16.3352 3.82056C17.1875 6.01945 15.0916 7.5625 10.6562 7.5625L11.6798 5.14056C13.0445 2.02664 15.774 2.37264 16.3352 3.82056Z" stroke="black" stroke-width="1.375"/>
<path d="M7.40438 9.95312H10.5201V10.9589H8.5085V15.625H7.40438V9.95312ZM14.9438 13.8176C14.9438 14.0394 14.9035 14.2587 14.8228 14.4755C14.7472 14.6923 14.6237 14.8864 14.4523 15.0578C14.2859 15.2242 14.0691 15.3603 13.8019 15.4662C13.5397 15.5721 13.2196 15.625 12.8415 15.625H11.2004V9.95312H14.5355V10.9589H12.3045V12.0328H12.8641C13.2322 12.0328 13.5473 12.0782 13.8095 12.1689C14.0767 12.2597 14.2935 12.3857 14.4598 12.5471C14.6262 12.7034 14.7472 12.8899 14.8228 13.1067C14.9035 13.3235 14.9438 13.5604 14.9438 13.8176ZM12.8112 14.6192C13.1187 14.6192 13.3582 14.5587 13.5296 14.4377C13.7061 14.3167 13.7943 14.1125 13.7943 13.8251C13.7943 13.6789 13.7691 13.5554 13.7187 13.4546C13.6683 13.3537 13.6002 13.2731 13.5145 13.2126C13.4288 13.1521 13.3229 13.1092 13.1969 13.084C13.0759 13.0537 12.9448 13.0386 12.8036 13.0386H12.3045V14.6192H12.8112Z" fill="black"/>
</svg>
