<svg width="97" height="96" viewBox="0 0 97 96" fill="none" xmlns="http://www.w3.org/2000/svg">
<g id="icons_&#208;&#175;-96">
<path id="Vector" d="M27.5 12H69.5C77.784 12 84.5 18.716 84.5 27V69C84.5 77.284 77.784 84 69.5 84H27.5C19.216 84 12.5 77.284 12.5 69V27C12.5 18.716 19.216 12 27.5 12Z" fill="#FED42B"/>
<g id="Clip path group">
<mask id="mask0_76_6174" style="mask-type:luminance" maskUnits="userSpaceOnUse" x="12" y="12" width="73" height="72">
<g id="SVGID_2_">
<path id="Vector_2" d="M27.4999 12.0001H69.4999C77.7839 12.0001 84.4999 18.7161 84.4999 27.0001V69.0001C84.4999 77.2841 77.7839 84.0001 69.4999 84.0001H27.4999C19.2159 84.0001 12.4999 77.2841 12.4999 69.0001V27.0001C12.4999 18.7161 19.2159 12.0001 27.4999 12.0001Z" fill="white"/>
</g>
</mask>
<g mask="url(#mask0_76_6174)">
<path id="Vector_3" d="M28.8007 29.9L-6.49927 76.1L2.90073 86.8L29.1007 52.1L26.4007 71.1L41.1007 76.2L59.0007 47.6C58.2007 52.9 56.9007 65.2 68.6007 69C87.0007 74.6 103.101 41.5 110.501 24.7L99.8007 19.1C91.5007 36.5 78.7007 55.7 73.6007 54.4C68.5007 53.1 73.1007 36.8 76.0007 26.3V26L59.7007 20.4L40.2007 52.2L42.9007 34.8L28.8007 29.9Z" fill="black"/>
</g>
</g>
</g>
</svg>
