<svg width="97" height="96" viewBox="0 0 97 96" fill="none" xmlns="http://www.w3.org/2000/svg">
<g id="icons8-ozon-96 2">
<path id="Vector" d="M27.5 12H69.5C77.784 12 84.5 18.716 84.5 27V69C84.5 77.284 77.784 84 69.5 84H27.5C19.216 84 12.5 77.284 12.5 69V27C12.5 18.716 19.216 12 27.5 12Z" fill="#2962FF"/>
<path id="Vector_2" d="M43.498 52.174H38.352L44.922 43.482C45.066 43.292 45.026 43.012 44.834 42.87C44.762 42.814 44.666 42.782 44.572 42.782H35.068C34.232 42.782 33.55 43.466 33.55 44.3C33.55 45.134 34.234 45.818 35.068 45.818H39.338L32.746 54.518C32.594 54.708 32.634 54.98 32.826 55.13C32.906 55.194 33 55.226 33.096 55.218H43.49C44.326 55.178 44.97 54.462 44.93 53.62C44.89 52.84 44.27 52.22 43.49 52.18V52.172L43.498 52.174ZM76.708 42.782C75.872 42.782 75.19 43.466 75.19 44.3V49.398L66.982 42.884C66.8 42.732 66.52 42.756 66.37 42.948C66.306 43.028 66.274 43.122 66.274 43.226V53.7C66.274 54.536 66.958 55.218 67.792 55.218C68.626 55.218 69.31 54.542 69.31 53.7V48.602L77.518 55.124C77.708 55.276 77.988 55.244 78.138 55.052C78.202 54.972 78.234 54.878 78.234 54.782V44.3C78.228 43.458 77.552 42.782 76.708 42.782ZM54.99 52.46C51.514 52.46 48.922 50.63 48.922 48.992C48.922 47.354 51.522 45.524 54.99 45.524C58.466 45.524 61.058 47.354 61.058 48.992C61.058 50.63 58.472 52.46 54.99 52.46ZM54.99 42.486C49.964 42.486 45.884 45.396 45.884 48.992C45.884 52.588 49.964 55.498 54.99 55.498C60.016 55.498 64.096 52.588 64.096 48.992C64.096 45.396 60.016 42.486 54.99 42.486ZM25.094 52.468C23.178 52.468 21.618 50.918 21.618 49C21.618 47.082 23.168 45.524 25.086 45.524C27.004 45.524 28.562 47.074 28.562 48.992V49C28.562 50.91 27.012 52.46 25.094 52.468ZM25.094 42.486C21.5 42.486 18.588 45.396 18.58 48.992C18.58 52.586 21.49 55.498 25.086 55.506C28.68 55.506 31.592 52.596 31.6 49V48.992C31.592 45.398 28.682 42.486 25.094 42.486Z" fill="white"/>
</g>
</svg>
