<svg width="23" height="22" viewBox="0 0 23 22" fill="none" xmlns="http://www.w3.org/2000/svg">
<g clip-path="url(#clip0_217_1169)">
<path fill-rule="evenodd" clip-rule="evenodd" d="M6.99305 1.37932C6.69768 1.37932 6.45824 1.61877 6.45824 1.91413L6.45825 3.67494L5.08301 3.67495L5.08301 1.91414C5.083 0.859248 5.93816 0.00408936 6.99305 0.00408936H15.9586C17.0135 0.00408936 17.8687 0.859242 17.8687 1.91413L17.8687 3.67494L16.4935 3.67495L16.4935 1.91413C16.4935 1.61876 16.254 1.37932 15.9586 1.37932H14.431V1.99413C14.431 2.71145 13.8495 3.29296 13.1321 3.29296H9.74731C9.02999 3.29296 8.44848 2.71145 8.44848 1.99413V1.37932H6.99305ZM9.82371 1.37932V1.91773H13.0557V1.37932H9.82371ZM6.45825 18.2348V20.0945C6.45825 20.3898 6.69769 20.6293 6.99306 20.6293H15.9587C16.254 20.6293 16.4935 20.3898 16.4935 20.0945V18.2348H17.8687V20.0945C17.8687 21.1494 17.0135 22.0045 15.9587 22.0045H6.99306C5.93817 22.0045 5.08301 21.1494 5.08301 20.0945V18.2348H6.45825Z" fill="white"/>
<path fill-rule="evenodd" clip-rule="evenodd" d="M11.4001 4.23593V4.92355L11.3987 4.23593L11.4001 4.23593ZM18.2235 4.62801C17.8192 4.51584 17.1755 4.44402 16.4973 4.39284C15.7982 4.34009 14.9981 4.30527 14.2459 4.28217C13.4926 4.25903 12.7817 4.24749 12.2595 4.24171C11.9982 4.23883 11.7839 4.23738 11.6346 4.23666C11.56 4.2363 11.5016 4.23612 11.4618 4.23602L11.4001 4.23593C11.4001 4.23593 11.4001 4.23593 11.4001 4.92355C11.3987 4.23593 11.3987 4.23593 11.3987 4.23593L11.3371 4.23616C11.2972 4.23633 11.2389 4.23663 11.1642 4.23715C11.015 4.23818 10.8007 4.24007 10.5394 4.24349C10.0172 4.25032 9.30635 4.26328 8.55308 4.28783C7.80095 4.31235 7.00087 4.34859 6.30197 4.4024C5.62369 4.45463 4.98058 4.52724 4.57682 4.63923C3.60429 4.90599 2.84529 5.68497 2.58754 6.66282L2.58688 6.66534C2.39239 7.41475 2.30344 8.52019 2.25988 9.39006C2.23759 9.83506 2.22648 10.2365 2.22092 10.5266C2.21814 10.6718 2.21674 10.7895 2.21604 10.8713C2.21569 10.9122 2.21551 10.9441 2.21542 10.9661L2.21534 10.9913L2.21533 11.0007L2.21534 11.0104L2.21543 11.0357C2.21552 11.0576 2.2157 11.0896 2.21606 11.1306C2.21679 11.2124 2.21823 11.3302 2.2211 11.4756C2.22683 11.7661 2.2383 12.168 2.2613 12.614C2.30623 13.4854 2.39799 14.5943 2.59862 15.3506C2.85649 16.3278 3.61532 17.1068 4.58773 17.3736C4.99207 17.4857 5.6357 17.5575 6.31394 17.6087C7.01295 17.6615 7.81312 17.6963 8.56529 17.7194C9.3186 17.7425 10.0295 17.7541 10.5517 17.7598C10.813 17.7627 11.0273 17.7642 11.1766 17.7649C11.2512 17.7652 11.3096 17.7654 11.3494 17.7655L11.4107 17.7656L11.4727 17.7655C11.5125 17.7654 11.5709 17.7652 11.6455 17.7649C11.7948 17.7642 12.0091 17.7627 12.2704 17.7598C12.7926 17.7541 13.5035 17.7425 14.2568 17.7194C15.009 17.6963 15.8092 17.6615 16.5082 17.6087C17.1865 17.5575 17.8302 17.4857 18.2345 17.3735C19.2066 17.1068 19.9652 16.3282 20.2233 15.3515C20.4242 14.5998 20.5159 13.4901 20.5608 12.618C20.5838 12.1714 20.5953 11.7684 20.601 11.4771C20.6039 11.3313 20.6053 11.2131 20.6061 11.131C20.6064 11.0899 20.6066 11.0578 20.6067 11.0358L20.6068 11.0104L20.6068 11.0009C20.6068 11.0009 20.6068 11.0008 19.9192 11.0008L20.6068 11.0009L20.6068 10.9982L19.9192 11.0008C20.6068 10.9982 20.6068 10.9982 20.6068 10.9982L20.6068 10.9973L20.6067 10.9887L20.6066 10.9634C20.6064 10.9414 20.6061 10.9094 20.6056 10.8685C20.6045 10.7867 20.6027 10.6689 20.5993 10.5236C20.5925 10.2332 20.5796 9.83132 20.5553 9.38551C20.5076 8.51427 20.4129 7.40668 20.2127 6.65167M19.2316 11.0021V11.001L19.2314 10.9744C19.2312 10.9544 19.2309 10.9246 19.2304 10.8858C19.2295 10.8084 19.2277 10.6955 19.2244 10.5556C19.2179 10.2756 19.2055 9.88855 19.1821 9.46061C19.1342 8.5848 19.0432 7.60611 18.8832 7.00336L19.5477 6.82699L18.8829 7.00223C18.7476 6.48888 18.3494 6.08838 17.8589 5.95403L17.8565 5.95335C17.6 5.88206 17.0838 5.81624 16.3938 5.76417C15.7238 5.71361 14.9464 5.67957 14.2037 5.65675C13.4621 5.63398 12.7607 5.62257 12.2443 5.61686C11.9862 5.61401 11.7747 5.61259 11.6279 5.61187C11.5545 5.61152 11.4974 5.61134 11.4586 5.61125L11.4009 5.61116L11.3431 5.61137C11.3044 5.61154 11.2472 5.61184 11.1738 5.61235C11.027 5.61337 10.8155 5.61523 10.5574 5.6186C10.041 5.62536 9.33954 5.63816 8.59788 5.66233C7.85508 5.68654 7.07764 5.72198 6.40755 5.77358C5.71757 5.8267 5.20088 5.89314 4.94379 5.9646L4.94124 5.96531C4.45123 6.09946 4.0533 6.4993 3.91767 7.01214C3.76288 7.60951 3.67717 8.58465 3.63339 9.45884C3.61199 9.8862 3.60126 10.273 3.5959 10.5529C3.59322 10.6928 3.59189 10.8056 3.59122 10.8831C3.59089 10.9218 3.59072 10.9517 3.59064 10.9717L3.59057 10.9941L3.59057 11.0075L3.59065 11.0299C3.59073 11.0498 3.5909 11.0797 3.59124 11.1184C3.59193 11.1958 3.5933 11.3086 3.59606 11.4485C3.60159 11.7285 3.61265 12.1153 3.6347 12.5431C3.67986 13.419 3.76828 14.3967 3.92797 14.9983L3.92826 14.9994C4.0636 15.5127 4.46184 15.9132 4.95216 16.0475L4.95472 16.0482C5.21123 16.1195 5.7274 16.1853 6.41742 16.2374C7.0874 16.2879 7.86475 16.322 8.60751 16.3448C9.34912 16.3676 10.0505 16.379 10.5669 16.3847C10.825 16.3875 11.0365 16.389 11.1833 16.3897C11.2567 16.39 11.3138 16.3902 11.3526 16.3903H11.4695C11.5083 16.3902 11.5655 16.39 11.6389 16.3897C11.7856 16.389 11.9971 16.3875 12.2552 16.3847C12.7716 16.379 13.473 16.3676 14.2146 16.3448C14.9574 16.322 15.7347 16.2879 16.4047 16.2374C17.0947 16.1853 17.6109 16.1195 17.8674 16.0482L17.87 16.0475C18.3603 15.9132 18.7585 15.5127 18.8939 14.9994L18.8945 14.997C19.0538 14.4018 19.1422 13.4251 19.1874 12.5473C19.2095 12.1188 19.2205 11.7309 19.2261 11.4501C19.2288 11.3098 19.2302 11.1966 19.2309 11.1189C19.2312 11.08 19.2314 11.0501 19.2315 11.03L19.2315 11.0076L19.2316 11.0021ZM20.2127 6.65167C19.9548 5.67423 19.1958 4.89484 18.2235 4.62801L20.2127 6.65167Z" fill="white"/>
<path fill-rule="evenodd" clip-rule="evenodd" d="M5.94175 4.78952C6.32151 4.78952 6.62936 5.09738 6.62936 5.47714V16.4703C6.62936 16.8501 6.32151 17.1579 5.94175 17.1579C5.56199 17.1579 5.25413 16.8501 5.25413 16.4703V13.5116H3.51086C3.1311 13.5116 2.82324 13.2037 2.82324 12.824C2.82324 12.4442 3.1311 12.1363 3.51086 12.1363H5.25413V9.8652H3.51086C3.1311 9.8652 2.82324 9.55735 2.82324 9.17759C2.82324 8.79783 3.1311 8.48997 3.51086 8.48997H5.25413V5.47714C5.25413 5.09738 5.56199 4.78952 5.94175 4.78952ZM16.8807 4.78952C17.2605 4.78952 17.5684 5.09738 17.5684 5.47714V8.48997H19.3116C19.6914 8.48997 19.9993 8.79783 19.9993 9.17759C19.9993 9.55735 19.6914 9.8652 19.3116 9.8652H17.5684V12.1363H19.3116C19.6914 12.1363 19.9993 12.4442 19.9993 12.824C19.9993 13.2037 19.6914 13.5116 19.3116 13.5116H17.5684V16.4703C17.5684 16.8501 17.2605 17.1579 16.8807 17.1579C16.501 17.1579 16.1931 16.8501 16.1931 16.4703V5.47714C16.1931 5.09738 16.501 4.78952 16.8807 4.78952Z" fill="white"/>
<path fill-rule="evenodd" clip-rule="evenodd" d="M9.55781 8.22042C9.77339 8.09836 10.0379 8.1017 10.2504 8.22915L13.8869 10.4111C14.0941 10.5354 14.2208 10.7592 14.2208 11.0007C14.2208 11.2423 14.0941 11.4661 13.8869 11.5903L10.2504 13.7723C10.038 13.8997 9.77339 13.9031 9.55781 13.781C9.34224 13.659 9.20898 13.4304 9.20898 13.1827V8.81878C9.20898 8.57105 9.34224 8.34247 9.55781 8.22042ZM10.5842 10.0332V11.9682L12.1967 11.0007L10.5842 10.0332Z" fill="white"/>
</g>
<defs>
<clipPath id="clip0_217_1169">
<rect width="22.0037" height="22.0037" fill="white" transform="translate(0.40918 -0.00186157)"/>
</clipPath>
</defs>
</svg>
