<svg width="150" height="150" viewBox="0 0 150 150" fill="none" xmlns="http://www.w3.org/2000/svg">
<g clip-path="url(#clip0_235_246)">
<mask id="mask0_235_246" style="mask-type:alpha" maskUnits="userSpaceOnUse" x="19" y="19" width="113" height="113">
<path d="M107.665 19H42.8348C29.6712 19 19 29.6712 19 42.8348V107.665C19 120.829 29.6712 131.5 42.8348 131.5H107.665C120.829 131.5 131.5 120.829 131.5 107.665V42.8348C131.5 29.6712 120.829 19 107.665 19Z" fill="black"/>
</mask>
<g mask="url(#mask0_235_246)">
<path d="M16 65.8222C16 48.3828 16 39.6631 19.3939 33.0021C22.3793 27.1429 27.143 22.3793 33.0022 19.3939C39.6632 16 48.3829 16 65.8224 16H84.178C101.617 16 110.337 16 116.998 19.3939C122.857 22.3793 127.621 27.1429 130.607 33.0021C134 39.6631 134 48.3828 134 65.8221V84.1776C134 101.617 134 110.337 130.607 116.997C127.621 122.857 122.857 127.621 116.998 130.606C110.337 134 101.617 134 84.178 134H65.8224C48.3829 134 39.6632 134 33.0022 130.606C27.143 127.621 22.3793 122.857 19.3939 116.997C16 110.337 16 101.617 16 84.1776V65.8222Z" fill="url(#paint0_linear_235_246)"/>
</g>
<path d="M49.8139 95.4919H42.015L30.4045 54.4908H37.4999L46.1196 86.5303L55.4432 54.4908H61.6589L70.9238 86.5303L79.5437 54.4908H86.639L75.0285 95.4919H67.2295L58.5511 65.561L49.8139 95.4919ZM113.669 74.2299C117.246 76.1041 119.416 79.5014 119.416 83.7773C119.416 87.1159 118.243 89.9274 115.838 92.1532C113.434 94.379 110.561 95.4919 107.101 95.4919H89.5097V54.4908H105.811C109.154 54.4908 112.027 55.6036 114.314 57.7708C116.659 59.938 117.832 62.6325 117.832 65.8539C117.832 69.4269 116.425 72.1798 113.669 74.2299ZM105.811 60.8167H96.2531V71.5941H105.811C108.801 71.5941 111.089 69.2511 111.089 66.2054C111.089 63.1596 108.801 60.8167 105.811 60.8167ZM96.2531 89.166H107.101C110.209 89.166 112.672 86.6473 112.672 83.4258C112.672 80.2043 110.209 77.6857 107.101 77.6857H96.2531V89.166Z" fill="white"/>
</g>
<defs>
<linearGradient id="paint0_linear_235_246" x1="23.3733" y1="133.84" x2="133.85" y2="25.2866" gradientUnits="userSpaceOnUse">
<stop stop-color="#CB11AB"/>
<stop offset="1" stop-color="#481173"/>
</linearGradient>
<clipPath id="clip0_235_246">
<rect width="112.5" height="112.5" fill="white" transform="translate(19 19)"/>
</clipPath>
</defs>
</svg>
