<svg width="96" height="96" viewBox="0 0 96 96" fill="none" xmlns="http://www.w3.org/2000/svg">
<mask id="mask0_207_1094" style="mask-type:luminance" maskUnits="userSpaceOnUse" x="12" y="12" width="72" height="72">
<path d="M68.7458 12H27.2542C18.8296 12 12 18.8296 12 27.2542V68.7458C12 77.1704 18.8296 84 27.2542 84H68.7458C77.1704 84 84 77.1704 84 68.7458V27.2542C84 18.8296 77.1704 12 68.7458 12Z" fill="white"/>
</mask>
<g mask="url(#mask0_207_1094)">
<path d="M84 12H12V84H84V12Z" fill="#005BFF"/>
<mask id="mask1_207_1094" style="mask-type:alpha" maskUnits="userSpaceOnUse" x="12" y="12" width="72" height="72">
<path fill-rule="evenodd" clip-rule="evenodd" d="M12 12H84V84H12V12Z" fill="white"/>
</mask>
<g mask="url(#mask1_207_1094)">
<path fill-rule="evenodd" clip-rule="evenodd" d="M47.4595 48.0986L46.3994 43.9919L53.396 39.2989L61.7642 39.8749L62.9857 43.8888L101.128 84.9209L41.4699 102.999L47.4595 48.0986Z" fill="#F91155"/>
<path fill-rule="evenodd" clip-rule="evenodd" d="M19.6549 60.1331C16.9475 61.2523 13.9228 59.4462 13.5052 56.4611C13.2205 54.4264 14.3388 52.4222 16.1844 51.6594C18.8919 50.5402 21.9165 52.3463 22.3342 55.331C22.6187 57.3661 21.5005 59.3702 19.6549 60.1331ZM16.5303 47.4244C11.2977 48.27 8.22357 53.7794 10.1336 58.8893C11.5468 62.6711 15.4367 64.9934 19.3088 64.3678C24.5416 63.5225 27.6157 58.013 25.7058 52.9028C24.2924 49.1214 20.4024 46.7989 16.5303 47.4244Z" fill="white"/>
<path fill-rule="evenodd" clip-rule="evenodd" d="M28.2273 44.4481C27.0511 44.7633 26.4162 46.0987 26.9924 47.2721C27.4149 48.1328 28.4196 48.5285 29.3317 48.284L34.6285 46.8647L29.3456 60.1197C29.1723 60.5546 29.5663 61.0071 30.0142 60.8873L42.9439 57.4226C43.8559 57.1782 44.5282 56.3329 44.4638 55.3764C44.3761 54.0721 43.1586 53.2333 41.9824 53.5487L35.529 55.2777L40.8078 42.0325C40.9827 41.5935 40.5851 41.1369 40.1331 41.258L28.2273 44.4481Z" fill="white"/>
<path fill-rule="evenodd" clip-rule="evenodd" d="M79.86 30.5297C79.0245 30.9551 78.6393 31.9505 78.8841 32.8643L80.6038 39.2821L68.0535 33.776C67.6157 33.5842 67.1545 33.9854 67.2787 34.4494L70.8291 47.6995C71.0739 48.6131 71.9051 49.2827 72.8415 49.2334C74.1475 49.1646 74.9827 47.9288 74.6609 46.7278L72.9268 40.2553L85.4771 45.7612C85.9145 45.9531 86.376 45.552 86.2515 45.088L82.6885 31.7897C82.3667 30.5887 81.025 29.936 79.86 30.5297Z" fill="white"/>
<path fill-rule="evenodd" clip-rule="evenodd" d="M52.9068 37.4033C46.621 39.0876 42.5202 44.1661 43.7476 48.7466C44.9748 53.3269 51.0654 55.6748 57.3514 53.9904C63.637 52.306 67.7381 47.2275 66.5105 42.6472C65.2833 38.0667 59.1928 35.7191 52.9068 37.4033ZM53.944 41.2743C58.2867 40.1107 62.1574 41.5761 62.7165 43.6638C63.2759 45.7515 60.6569 48.9558 56.3142 50.1193C51.9715 51.2832 48.1008 49.8176 47.5415 47.73C46.9821 45.6423 49.6013 42.4379 53.944 41.2743Z" fill="white"/>
</g>
</g>
</svg>
