<svg width="32" height="32" viewBox="0 0 32 32" fill="none" xmlns="http://www.w3.org/2000/svg">
<mask id="mask0_76_5953" style="mask-type:alpha" maskUnits="userSpaceOnUse" x="0" y="0" width="32" height="32">
<rect width="32" height="32" fill="#3FCBFF"/>
</mask>
<g mask="url(#mask0_76_5953)">
<path fill-rule="evenodd" clip-rule="evenodd" d="M9.025 5.73336L9.33382 5.76037L9.3347 5.75041C9.9252 5.81278 10.4783 6.06949 10.9071 6.48023C11.0701 6.62499 11.2283 6.76682 11.3912 6.91282C11.5541 7.05883 11.7217 7.209 11.9033 7.37044L12.1449 7.59234L12.3838 7.84413L13.8822 9.18984C14.4504 9.64534 14.7948 10.3236 14.8273 11.0511C14.8597 11.7786 14.5771 12.4848 14.0518 12.9891L13.9183 13.138L13.6413 13.435C13.3293 13.7892 12.9856 14.1606 12.6211 14.5403C12.9907 15.2172 13.4373 15.8492 13.9521 16.4235C15.1668 17.8308 16.6051 19.0284 18.2093 19.968C18.3066 20.0242 18.4181 20.077 18.5338 20.1319C18.5886 20.1578 18.6443 20.1842 18.7 20.2117L18.9576 20.3647L20.3783 18.8126C20.8426 18.2661 21.5099 17.9329 22.2257 17.8901L22.5246 17.9163C23.1295 17.9793 23.6943 18.2485 24.1242 18.6786L26.9912 21.2482C27.5385 21.6959 27.8772 22.3493 27.9276 23.0546C27.9779 23.7599 27.7355 24.4548 27.2573 24.9756L27.1584 25.1878C27.0609 25.304 26.9603 25.4122 26.858 25.5222C26.7957 25.5892 26.7327 25.6568 26.6696 25.7273L26.5487 25.8472L26.5106 25.8879C26.2455 26.1722 25.9721 26.4653 25.7243 26.7789C25.7204 26.8019 25.7183 26.8252 25.7182 26.8486C24.9697 27.7322 23.8794 28.254 22.7218 28.2829L22.3831 28.2533L21.7953 28.2019C20.4127 28.0464 19.0632 27.6742 17.7962 27.0991C14.6465 25.7407 11.8217 23.7279 9.50933 21.1944C7.75549 19.3217 6.3383 17.1601 5.32026 14.805C4.75126 13.6101 4.46403 12.3006 4.48068 10.9772C4.5117 10.0327 4.88289 9.13122 5.5259 8.43868L7.21443 6.57877C7.68388 6.07062 8.33402 5.76705 9.025 5.73336ZM9.85087 7.6525C9.67507 7.47517 9.44417 7.36293 9.19612 7.33423L9.0965 7.32551C8.80264 7.36328 8.53286 7.50755 8.33828 7.73097L6.68362 9.43323C6.28872 9.85062 6.06198 10.3992 6.04694 10.9736C6.05341 12.0601 6.30266 13.1314 6.77644 14.1091C7.73052 16.2926 9.05673 18.2938 10.6959 20.0232C12.8512 22.3896 15.486 24.2695 18.4247 25.5378C19.5395 26.0447 20.7263 26.3754 21.9426 26.5182L22.4308 26.5609L22.6599 26.5809C23.3723 26.582 24.0505 26.2754 24.5203 25.7399C24.8149 25.3373 25.1334 24.9529 25.4742 24.5886C25.5569 24.4964 25.6392 24.4092 25.7206 24.3229C25.8364 24.2001 25.9507 24.0791 26.0624 23.9474C26.2983 23.7456 26.4271 23.4456 26.411 23.1356C26.3949 22.8255 26.2357 22.5405 25.98 22.3642L23.0711 19.7006C22.8982 19.5169 22.6679 19.3976 22.4181 19.3624L22.3185 19.3537C22.0259 19.3871 21.7592 19.5376 21.5793 19.7708L19.9259 21.5736C19.7355 21.7981 19.463 21.937 19.1694 21.9591L19.0399 21.9478C18.9103 21.938 18.7838 21.9031 18.6675 21.8449L18.5977 21.8388L18.0872 21.5934C17.8694 21.5039 17.6571 21.4016 17.4515 21.2868C15.6877 20.2566 14.1067 18.9413 12.7729 17.3942C12.0613 16.6165 11.4619 15.743 10.9923 14.7992C10.8051 14.4087 10.8905 13.9421 11.2039 13.6432C11.6217 13.2281 12.0096 12.8103 12.4209 12.3544C12.4606 12.31 12.5004 12.2648 12.5406 12.2192C12.6352 12.1118 12.7314 12.0025 12.8322 11.8985C13.0649 11.6979 13.1925 11.4014 13.1782 11.0945C13.1639 10.7876 13.0093 10.5042 12.7589 10.3261L11.2804 8.98216L10.7791 8.51669C10.4747 8.20899 10.1678 7.93118 9.85087 7.6525Z" fill="#3FCBFF"/>
<path fill-rule="evenodd" clip-rule="evenodd" d="M23.471 3.42782C23.3055 3.31259 23.11 3.25 22.9057 3.25C22.6603 3.25 22.4279 3.34027 22.2481 3.50029L16.86 8.50797L16.7912 8.58295C16.7081 8.68981 16.6611 8.82263 16.6611 8.96254C16.6611 9.0432 16.6768 9.12222 16.7066 9.19613L16.7487 9.28022L16.8019 9.35598C16.9185 9.49859 17.0943 9.58591 17.2863 9.58591L18.1821 9.585L18.1826 13.3176L18.1896 13.4607C18.2675 14.3098 18.98 14.9724 19.8469 14.9724H21.339L21.4549 14.9658C21.9492 14.9087 22.3337 14.4905 22.3372 13.9813L22.3372 9.85743L22.3457 9.79641C22.3732 9.69915 22.4632 9.62724 22.5698 9.62724H23.2426L23.3045 9.6355C23.4029 9.66243 23.4755 9.75212 23.4764 9.85906L23.4763 13.9796L23.4838 14.0957C23.5443 14.591 23.9652 14.9731 24.4748 14.9731H25.8468L25.9925 14.967L26.1431 14.9474C26.9349 14.8079 27.5378 14.1194 27.5437 13.2882L27.5431 9.588L28.5385 9.58836L28.6304 9.58161C28.9306 9.53714 29.1611 9.27836 29.1611 8.96569C29.1611 8.75244 29.0529 8.55759 28.8773 8.4429L23.5666 3.50319L23.471 3.42782ZM18.8701 8.34493L22.9051 4.59493L26.9361 8.33993L26.9179 8.34015L26.9401 8.34393L26.8547 8.34907C26.5236 8.39075 26.2926 8.64821 26.2899 8.96035L26.2899 13.286L26.2822 13.3653C26.2432 13.571 26.0612 13.727 25.8405 13.727L24.7301 13.7289L24.7305 9.85702L24.7226 9.71449C24.6457 8.96428 24.0137 8.38148 23.2458 8.38148H22.5649L22.4226 8.38822C21.6733 8.45948 21.0861 9.08785 21.081 9.85534L21.0831 13.7259L19.8484 13.7263L19.7655 13.718C19.578 13.6799 19.4367 13.5148 19.4353 13.3162L19.4353 8.96317L19.427 8.86543C19.3851 8.61042 19.1905 8.4049 18.9348 8.35276L18.8701 8.34493Z" fill="#3FCBFF"/>
</g>
</svg>
