<svg width="23" height="22" viewBox="0 0 23 22" fill="none" xmlns="http://www.w3.org/2000/svg">
<path fill-rule="evenodd" clip-rule="evenodd" d="M16.058 1.1577C16.3042 0.868353 16.2692 0.434221 15.9799 0.188041C15.6905 -0.0581383 15.2564 -0.0231422 15.0102 0.266208L11.628 4.24151L8.75446 2.29869C8.43974 2.08591 8.01211 2.16854 7.79932 2.48326C7.58654 2.79799 7.66917 3.22562 7.98389 3.4384L10.0157 4.81212H3.16045C1.64083 4.81212 0.408936 6.04401 0.408936 7.56363V18.5614C0.408936 20.081 1.64083 21.3129 3.16045 21.3129H19.6582C21.1778 21.3129 22.4097 20.081 22.4097 18.5614V7.56363C22.4097 6.04401 21.1778 4.81212 19.6582 4.81212H12.9489L16.058 1.1577ZM1.78469 7.56363C1.78469 6.80382 2.40064 6.18788 3.16045 6.18788H19.6582C20.418 6.18788 21.0339 6.80382 21.0339 7.56363V18.5614C21.0339 19.3212 20.418 19.9371 19.6582 19.9371H3.16045C2.40064 19.9371 1.78469 19.3212 1.78469 18.5614V7.56363Z" fill="white"/>
<circle cx="11.4092" cy="13.0625" r="4.8125" fill="white"/>
</svg>
