<svg width="32" height="32" viewBox="0 0 32 32" fill="none" xmlns="http://www.w3.org/2000/svg">
<path d="M21.0303 14.0303C21.3232 13.7374 21.3232 13.2626 21.0303 12.9697C20.7374 12.6768 20.2626 12.6768 19.9697 12.9697L14.5 18.4393L11.5303 15.4697C11.2374 15.1768 10.7626 15.1768 10.4697 15.4697C10.1768 15.7626 10.1768 16.2374 10.4697 16.5303L13.9697 20.0303C14.2626 20.3232 14.7374 20.3232 15.0303 20.0303L21.0303 14.0303Z" fill="#3FCBFF"/>
<path fill-rule="evenodd" clip-rule="evenodd" d="M16.5303 2.46967L16.5295 2.4689C16.389 2.32888 16.1984 2.25 16 2.25C15.8014 2.25 15.6109 2.32876 15.4703 2.46897L15.4654 2.47381C15.4601 2.47892 15.4511 2.48765 15.4383 2.49978C15.4126 2.52404 15.3718 2.56186 15.3162 2.61132C15.2049 2.71025 15.0343 2.85558 14.8065 3.03196C14.3505 3.38493 13.6671 3.86085 12.772 4.33824C10.9826 5.2926 8.35314 6.25 4.99998 6.25C4.63335 6.25 4.32046 6.51506 4.26018 6.8767L4.25986 6.87867L4.25926 6.88229L4.2573 6.89442L4.25049 6.93791C4.24474 6.97534 4.23668 7.02948 4.22692 7.09935C4.2074 7.23908 4.18107 7.44181 4.15286 7.69971C4.09647 8.2153 4.03245 8.95248 4.00046 9.84823C3.93659 11.6365 3.99976 14.0731 4.51455 16.6471C5.54443 21.7965 8.41937 27.6141 15.7939 29.7211C15.9286 29.7596 16.0714 29.7596 16.206 29.7211C23.5806 27.6141 26.4555 21.7965 27.4854 16.6471C28.0002 14.0731 28.0634 11.6365 27.9995 9.84823C27.9675 8.95248 27.9035 8.2153 27.8471 7.69971C27.8189 7.44181 27.7926 7.23908 27.773 7.09935C27.7633 7.02948 27.7552 6.97534 27.7495 6.93792L27.7427 6.89442L27.7407 6.88229L27.7399 6.87748C27.6796 6.51584 27.3666 6.25 27 6.25C23.6468 6.25 21.0173 5.2926 19.2279 4.33824C18.3328 3.86085 17.6494 3.38493 17.1935 3.03196C16.9657 2.85558 16.7951 2.71026 16.6838 2.61132C16.6282 2.56186 16.5874 2.52404 16.5617 2.49978C16.5489 2.48765 16.5398 2.47892 16.5346 2.47382L16.5303 2.46967ZM27 7L27.7399 6.87748C27.7399 6.87748 27.7398 6.8767 27 7ZM26.3421 7.73862C23.0067 7.62294 20.3631 6.64369 18.522 5.66176C17.5421 5.13915 16.788 4.61507 16.2752 4.21804C16.1741 4.13978 16.0823 4.0664 16 3.99887C15.9176 4.0664 15.8258 4.13978 15.7247 4.21804C15.2119 4.61507 14.4578 5.13915 13.4779 5.66176C11.6368 6.64369 8.99322 7.62294 5.6579 7.73862C5.65334 7.77826 5.64869 7.81967 5.64397 7.86279C5.59099 8.3472 5.53001 9.04752 5.4995 9.90177C5.43837 11.6135 5.50021 13.9269 5.98542 16.3529C6.94543 21.1529 9.52601 26.2778 16 28.2185C22.4739 26.2778 25.0545 21.1529 26.0145 16.3529C26.4997 13.9269 26.5616 11.6135 26.5005 9.90177C26.4699 9.04752 26.409 8.3472 26.356 7.86279C26.3513 7.81967 26.3466 7.77826 26.3421 7.73862Z" fill="#3FCBFF"/>
</svg>
