<svg width="23" height="22" viewBox="0 0 23 22" fill="none" xmlns="http://www.w3.org/2000/svg">
<path fill-rule="evenodd" clip-rule="evenodd" d="M1.78369 9.66582C1.78369 4.33609 6.11978 0 11.4495 0C16.7793 0 21.1153 4.33609 21.1153 9.66582V14.9068C21.1153 15.9728 20.2481 16.84 19.1822 16.84H18.5378V17.4844C18.5378 19.261 17.0924 20.7063 15.3158 20.7063H13.2718C13.0058 21.4563 12.2896 21.9951 11.4495 21.9951C10.3836 21.9951 9.51635 21.1279 9.51635 20.062C9.51635 18.996 10.3836 18.1288 11.4495 18.1288C12.2896 18.1288 13.0058 18.6676 13.2718 19.4176H15.3158C16.1867 19.4176 16.9247 18.8386 17.1657 18.0455C16.988 18.0995 16.7997 18.1288 16.6046 18.1288C15.5387 18.1288 14.6715 17.2616 14.6715 16.1956V10.9546C14.6715 9.88865 15.5387 9.02143 16.6046 9.02143C17.4447 9.02143 18.1609 9.56023 18.427 10.3102H19.1822C19.4081 10.3102 19.6249 10.3495 19.8266 10.421V9.66582C19.8266 5.04672 16.0686 1.28878 11.4495 1.28878C6.83041 1.28878 3.07247 5.04672 3.07247 9.66582V10.421C3.27416 10.3495 3.49093 10.3102 3.71686 10.3102H4.47208C4.73808 9.56023 5.45434 9.02143 6.29441 9.02143C7.36036 9.02143 8.22757 9.88865 8.22757 10.9546V16.1956C8.22757 17.2616 7.36036 18.1288 6.29441 18.1288C5.45434 18.1288 4.73808 17.59 4.47208 16.84H3.71686C2.65091 16.84 1.78369 15.9728 1.78369 14.9068V9.66582ZM6.29458 10.3102C5.93927 10.3102 5.65019 10.5993 5.65019 10.9546V16.1956C5.65019 16.5509 5.93927 16.84 6.29458 16.84C6.6499 16.84 6.93897 16.5509 6.93897 16.1956V10.9546C6.93897 10.5993 6.6499 10.3102 6.29458 10.3102ZM3.71705 11.599H4.36143V15.5512H3.71705C3.36173 15.5512 3.07266 15.2622 3.07266 14.9068V12.2434C3.07266 11.8881 3.36173 11.599 3.71705 11.599ZM10.8053 20.062C10.8053 20.4173 11.0943 20.7063 11.4497 20.7063C11.805 20.7063 12.094 20.4173 12.094 20.062C12.094 19.7066 11.805 19.4176 11.4497 19.4176C11.0943 19.4176 10.8053 19.7066 10.8053 20.062ZM17.2491 16.1956C17.2491 16.5509 16.96 16.84 16.6047 16.84C16.2494 16.84 15.9603 16.5509 15.9603 16.1956V10.9546C15.9603 10.5993 16.2494 10.3102 16.6047 10.3102C16.96 10.3102 17.2491 10.5993 17.2491 10.9546V16.1956ZM19.1823 15.5512C19.5376 15.5512 19.8266 15.2622 19.8266 14.9068V12.2434C19.8266 11.8881 19.5376 11.599 19.1823 11.599H18.5379V15.5512H19.1823Z" fill="white"/>
</svg>
