<svg width="22" height="22" viewBox="0 0 22 22" fill="none" xmlns="http://www.w3.org/2000/svg">
<g id="telegram">
<g id="Union">
<path d="M13.6794 7.6293C13.6794 7.6293 11.8972 8.37753 11.3717 8.61135C10.0008 9.1959 6.04794 10.856 6.04794 10.856C5.11114 11.2301 5.65951 11.5809 5.65951 11.5809C5.65951 11.5809 6.45921 11.8615 7.14468 12.0719C7.83014 12.2823 8.19572 12.0485 8.19572 12.0485C8.19572 12.0485 9.79514 10.9729 11.4174 9.82722C12.5598 9.03223 12.2857 9.68692 12.0115 9.96751C11.4174 10.5754 10.4349 11.5341 9.61235 12.3057C9.24677 12.6331 9.42956 12.9137 9.5895 13.0539C10.0545 13.4566 11.1493 14.1886 11.647 14.5214C11.7852 14.6138 11.8774 14.6754 11.8972 14.6907C12.0115 14.7842 12.6512 15.2051 13.0397 15.1116C13.4281 15.018 13.4738 14.4803 13.4738 14.4803C13.4738 14.4803 13.7708 12.5629 14.045 10.8093C14.0958 10.4651 14.1465 10.1281 14.1939 9.81392C14.317 8.99675 14.4169 8.33338 14.4334 8.09694C14.502 7.30195 13.6794 7.6293 13.6794 7.6293Z" fill="#4EA4F6"/>
<path d="M19.9375 11C19.9375 15.936 15.936 19.9375 11 19.9375C6.06395 19.9375 2.0625 15.936 2.0625 11C2.0625 6.06395 6.06395 2.0625 11 2.0625C15.936 2.0625 19.9375 6.06395 19.9375 11ZM18.5625 11C18.5625 6.82335 15.1767 3.4375 11 3.4375C6.82335 3.4375 3.4375 6.82335 3.4375 11C3.4375 15.1767 6.82335 18.5625 11 18.5625C15.1767 18.5625 18.5625 15.1767 18.5625 11Z" fill="#4EA4F6"/>
</g>
</g>
</svg>
