<svg width="23" height="22" viewBox="0 0 23 22" fill="none" xmlns="http://www.w3.org/2000/svg">
<path fill-rule="evenodd" clip-rule="evenodd" d="M2.65928 5.82555L2.75204 5.7194L8.27197 0.272927C8.63906 -0.0892823 9.22906 -0.0893108 9.59619 0.272862L19.7888 10.3279C20.163 10.697 20.163 11.3009 19.7888 11.6701L9.59626 21.7271C9.22914 22.0893 8.63908 22.0893 8.27197 21.7271L2.75204 16.2806C2.37796 15.9115 2.37789 15.3077 2.7519 14.9386L6.74146 10.9987L2.75204 7.06156C2.41191 6.72596 2.38099 6.19641 2.65928 5.82555ZM17.7843 10.9988L8.93372 2.26763L4.75545 6.38934L8.74708 10.3279C9.08715 10.6635 9.11812 11.1929 8.83995 11.5638L8.74722 11.6699L4.75545 15.6082L8.93372 19.7311L17.7843 10.9988Z" fill="white"/>
</svg>
