<svg width="150" height="150" fill="none" xmlns="http://www.w3.org/2000/svg"><g clip-path="url('#clip0_235_246')"><mask id="mask0_235_246" style="mask-type:alpha" maskUnits="userSpaceOnUse" x="19" y="19" width="113" height="113"><path d="M107.665 19h-64.83C29.67 19 19 29.671 19 42.835v64.83c0 13.164 10.671 23.835 23.835 23.835h64.83c13.164 0 23.835-10.671 23.835-23.835v-64.83C131.5 29.67 120.829 19 107.665 19Z" fill="#000"/></mask><g mask="url('#mask0_235_246')"><path d="M16 65.822c0-17.44 0-26.159 3.394-32.82a31.139 31.139 0 0 1 13.608-13.608C39.663 16 48.382 16 65.822 16h18.356c17.439 0 26.159 0 32.82 3.394a31.144 31.144 0 0 1 13.609 13.608C134 39.663 134 48.382 134 65.822v18.356c0 17.439 0 26.159-3.393 32.819a31.14 31.14 0 0 1-13.609 13.609C110.337 134 101.617 134 84.178 134H65.822c-17.44 0-26.159 0-32.82-3.394a31.134 31.134 0 0 1-13.608-13.609C16 110.337 16 101.617 16 84.177V65.823Z" fill="url('#paint0_linear_235_246')"/></g><path d="M49.814 95.492h-7.799L30.405 54.49H37.5l8.62 32.04 9.323-32.04h6.216l9.265 32.04 8.62-32.04h7.095l-11.61 41h-7.8l-8.678-29.93-8.737 29.93Zm63.855-21.262c3.577 1.874 5.747 5.271 5.747 9.547 0 3.339-1.173 6.15-3.578 8.376-2.404 2.226-5.277 3.339-8.737 3.339H89.51V54.49h16.301c3.343 0 6.216 1.113 8.503 3.28 2.345 2.167 3.518 4.861 3.518 8.083 0 3.573-1.407 6.326-4.163 8.376Zm-7.858-13.413h-9.558v10.777h9.558c2.99 0 5.278-2.343 5.278-5.389 0-3.045-2.288-5.388-5.278-5.388Zm-9.558 28.349h10.848c3.108 0 5.571-2.519 5.571-5.74 0-3.222-2.463-5.74-5.571-5.74H96.253v11.48Z" fill="#fff"/></g><defs><linearGradient id="paint0_linear_235_246" x1="23.373" y1="133.84" x2="133.85" y2="25.287" gradientUnits="userSpaceOnUse"><stop stop-color="#CB11AB"/><stop offset="1" stop-color="#481173"/></linearGradient><clipPath id="clip0_235_246"><path fill="#fff" transform="translate(19 19)" d="M0 0h112.5v112.5H0z"/></clipPath></defs></svg>