<svg width="23" height="22" fill="none" xmlns="http://www.w3.org/2000/svg"><g clip-path="url('#clip0_217_1169')" fill-rule="evenodd" clip-rule="evenodd" fill="#fff"><path d="M6.993 1.38a.535.535 0 0 0-.535.534v1.76l-1.375.001v-1.76a1.91 1.91 0 0 1 1.91-1.91h8.966a1.91 1.91 0 0 1 1.91 1.91v1.76h-1.375v-1.76a.535.535 0 0 0-.535-.536H14.43v.615c0 .717-.581 1.299-1.299 1.299H9.747a1.299 1.299 0 0 1-1.299-1.299V1.38H6.993Zm2.83 0v.538h3.233v-.539H9.824ZM6.459 18.234v1.86c0 .295.24.534.535.534h8.966c.295 0 .535-.24.535-.535v-1.86h1.375v1.86a1.91 1.91 0 0 1-1.91 1.91H6.993a1.91 1.91 0 0 1-1.91-1.91v-1.86h1.375ZM11.4 4.236v.688l-.001-.688h.001Zm6.824.392c-.405-.112-1.049-.184-1.727-.235-.699-.053-1.499-.088-2.251-.11a103.223 103.223 0 0 0-2.784-.047H11.4v.688l-.001-.688h-.062a64.603 64.603 0 0 0-.798.007c-.522.007-1.233.02-1.986.045-.752.024-1.552.06-2.251.114-.678.053-1.321.125-1.725.237a2.851 2.851 0 0 0-1.99 2.024v.002c-.195.75-.284 1.855-.327 2.725a37.375 37.375 0 0 0-.045 1.576v.07a20.487 20.487 0 0 0 .006.44c.006.29.017.692.04 1.138.045.871.137 1.98.338 2.737a2.852 2.852 0 0 0 1.989 2.023c.404.112 1.048.184 1.726.235.699.052 1.5.087 2.251.11a102.844 102.844 0 0 0 2.784.046h.124a122.86 122.86 0 0 0 .797-.005c.523-.006 1.234-.018 1.987-.04a52.464 52.464 0 0 0 2.251-.111c.678-.052 1.322-.123 1.727-.236a2.852 2.852 0 0 0 1.988-2.022c.201-.751.293-1.86.338-2.733a36.368 36.368 0 0 0 .046-1.582V11h-.688.688v-.002l-.688.003.688-.003v-.035a29.11 29.11 0 0 0-.008-.44 37.26 37.26 0 0 0-.044-1.137c-.047-.872-.142-1.98-.342-2.734m-.981 4.35v-.028a29.05 29.05 0 0 0-.008-.418c-.006-.28-.018-.667-.042-1.095-.048-.876-.139-1.855-.299-2.458l.665-.176-.665.175a1.476 1.476 0 0 0-1.024-1.048h-.003c-.256-.072-.772-.138-1.462-.19-.67-.05-1.448-.084-2.19-.107a101.884 101.884 0 0 0-2.745-.046h-.116a67.048 67.048 0 0 0-.786.008c-.516.006-1.217.02-1.96.043-.742.025-1.52.06-2.19.112-.69.053-1.206.12-1.463.19l-.003.001c-.49.134-.888.534-1.023 1.047-.155.598-.24 1.573-.285 2.447a36.007 36.007 0 0 0-.042 1.513V11.03a18.896 18.896 0 0 0 .005.418c.006.28.017.667.039 1.095.045.876.133 1.854.293 2.455V15c.136.514.534.914 1.024 1.048l.003.001c.256.072.772.137 1.462.19.67.05 1.448.084 2.19.107a101.569 101.569 0 0 0 2.746.045h.117a120.61 120.61 0 0 0 .785-.005c.517-.006 1.218-.017 1.96-.04a51.29 51.29 0 0 0 2.19-.108c.69-.052 1.206-.117 1.462-.189h.003c.49-.135.889-.535 1.024-1.049v-.002c.16-.595.248-1.572.293-2.45a35.246 35.246 0 0 0 .044-1.517V11.002Zm.98-4.35a2.853 2.853 0 0 0-1.988-2.024l1.989 2.024Z"/><path d="M5.942 4.79c.38 0 .687.307.687.687V16.47a.688.688 0 1 1-1.375 0v-2.958H3.511a.688.688 0 0 1 0-1.376h1.743v-2.27H3.511a.688.688 0 1 1 0-1.376h1.743V5.477c0-.38.308-.687.688-.687Zm10.939 0c.38 0 .687.307.687.687V8.49h1.744a.688.688 0 1 1 0 1.375h-1.744v2.271h1.744a.688.688 0 0 1 0 1.376h-1.744v2.958a.688.688 0 0 1-1.375 0V5.477c0-.38.308-.687.688-.687ZM9.558 8.22a.688.688 0 0 1 .692.01l3.637 2.181a.688.688 0 0 1 0 1.18l-3.637 2.181a.688.688 0 0 1-1.041-.59V8.82c0-.248.133-.477.349-.599Zm1.026 1.813v1.935l1.613-.967-1.613-.968Z"/></g><defs><clipPath id="clip0_217_1169"><path fill="#fff" transform="translate(.41 -.002)" d="M0 0h22.004v22.004H0z"/></clipPath></defs></svg>