<svg width="97" height="96" fill="none" xmlns="http://www.w3.org/2000/svg"><g id="icons_Я-96"><path id="Vector" d="M27.5 12h42c8.284 0 15 6.716 15 15v42c0 8.284-6.716 15-15 15h-42c-8.284 0-15-6.716-15-15V27c0-8.284 6.716-15 15-15Z" fill="#FED42B"/><g id="Clip path group"><mask id="mask0_76_6174" style="mask-type:luminance" maskUnits="userSpaceOnUse" x="12" y="12" width="73" height="72"><g id="SVGID_2_"><path id="Vector_2" d="M27.5 12h42c8.284 0 15 6.716 15 15v42c0 8.284-6.716 15-15 15h-42c-8.284 0-15-6.716-15-15V27c0-8.284 6.716-15 15-15Z" fill="#fff"/></g></mask><g mask="url('#mask0_76_6174')"><path id="Vector_3" d="M28.8 29.9-6.5 76.1l9.4 10.7 26.2-34.7-2.7 19 14.7 5.1L59 47.6c-.8 5.3-2.1 17.6 9.6 21.4 18.4 5.6 34.501-27.5 41.901-44.3l-10.7-5.6c-8.3 17.4-21.1 36.6-26.2 35.3-5.1-1.3-.5-17.6 2.4-28.1V26l-16.3-5.6-19.5 31.8 2.7-17.4-14.1-4.9Z" fill="#000"/></g></g></g></svg>