<svg width="96" height="96" fill="none" xmlns="http://www.w3.org/2000/svg"><mask id="mask0_207_1094" style="mask-type:luminance" maskUnits="userSpaceOnUse" x="12" y="12" width="72" height="72"><path d="M68.746 12H27.254C18.83 12 12 18.83 12 27.254v41.492C12 77.17 18.83 84 27.254 84h41.492C77.17 84 84 77.17 84 68.746V27.254C84 18.83 77.17 12 68.746 12Z" fill="#fff"/></mask><g mask="url('#mask0_207_1094')"><path d="M84 12H12v72h72V12Z" fill="#005BFF"/><mask id="mask1_207_1094" style="mask-type:alpha" maskUnits="userSpaceOnUse" x="12" y="12" width="72" height="72"><path fill-rule="evenodd" clip-rule="evenodd" d="M12 12h72v72H12V12Z" fill="#fff"/></mask><g mask="url('#mask1_207_1094')" fill-rule="evenodd" clip-rule="evenodd"><path d="m47.46 48.099-1.06-4.107 6.996-4.693 8.368.576 1.222 4.014 38.142 41.032-59.658 18.078 5.99-54.9Z" fill="#F91155"/><path d="M19.655 60.133c-2.707 1.12-5.732-.687-6.15-3.672-.285-2.035.834-4.039 2.68-4.802 2.707-1.119 5.732.687 6.15 3.672.284 2.035-.835 4.04-2.68 4.802ZM16.53 47.424c-5.232.846-8.306 6.355-6.396 11.465 1.413 3.782 5.303 6.104 9.175 5.479 5.233-.845 8.307-6.355 6.397-11.465-1.414-3.782-5.304-6.104-9.176-5.479ZM28.227 44.448c-1.176.315-1.81 1.65-1.235 2.824.423.86 1.428 1.257 2.34 1.012l5.297-1.42-5.283 13.256c-.174.435.22.887.668.767l12.93-3.464c.912-.245 1.584-1.09 1.52-2.047-.088-1.304-1.305-2.143-2.482-1.827l-6.453 1.729 5.279-13.245c.175-.44-.223-.896-.675-.775l-11.906 3.19ZM79.86 30.53c-.835.425-1.22 1.42-.976 2.334l1.72 6.418-12.55-5.506a.569.569 0 0 0-.775.673l3.55 13.25c.245.914 1.076 1.584 2.013 1.534a1.984 1.984 0 0 0 1.819-2.505l-1.734-6.473 12.55 5.506a.568.568 0 0 0 .774-.673L82.688 31.79a1.984 1.984 0 0 0-2.828-1.26ZM52.907 37.403c-6.286 1.685-10.387 6.763-9.16 11.344 1.228 4.58 7.318 6.928 13.604 5.243 6.286-1.684 10.387-6.763 9.16-11.343-1.228-4.58-7.318-6.928-13.604-5.244Zm1.037 3.871c4.343-1.163 8.213.302 8.773 2.39.559 2.087-2.06 5.292-6.403 6.455-4.343 1.164-8.213-.301-8.773-2.389-.559-2.088 2.06-5.292 6.403-6.456Z" fill="#fff"/></g></g></svg>