<svg width="32" height="32" fill="none" xmlns="http://www.w3.org/2000/svg"><mask id="mask0_76_5953" style="mask-type:alpha" maskUnits="userSpaceOnUse" x="0" y="0" width="32" height="32"><path fill="#3FCBFF" d="M0 0h32v32H0z"/></mask><g mask="url('#mask0_76_5953')" fill-rule="evenodd" clip-rule="evenodd" fill="#3FCBFF"><path d="m9.025 5.733.309.027v-.01a2.68 2.68 0 0 1 1.573.73l.484.433c.163.146.33.296.512.457l.242.222.239.252 1.498 1.346a2.53 2.53 0 0 1 .17 3.8l-.134.148-.277.297c-.312.354-.655.726-1.02 1.105.37.677.816 1.31 1.331 1.884a16.92 16.92 0 0 0 4.257 3.544c.098.056.21.109.325.164l.166.08.258.153 1.42-1.552a2.63 2.63 0 0 1 1.848-.923l.299.026a2.65 2.65 0 0 1 1.6.763l2.866 2.57a2.57 2.57 0 0 1 .266 3.727l-.099.212a8.733 8.733 0 0 1-.3.334l-.188.205-.121.12-.038.04c-.265.285-.539.578-.787.892a.428.428 0 0 0-.006.07 4.06 4.06 0 0 1-2.996 1.434l-.339-.03-.588-.051a13.262 13.262 0 0 1-3.999-1.103 24.19 24.19 0 0 1-8.287-5.905 22.28 22.28 0 0 1-4.189-6.389 8.65 8.65 0 0 1-.84-3.828A3.92 3.92 0 0 1 5.527 8.44l1.688-1.86a2.64 2.64 0 0 1 1.811-.846Zm.826 1.92a1.1 1.1 0 0 0-.655-.319l-.1-.008a1.21 1.21 0 0 0-.758.405L6.684 9.433a2.33 2.33 0 0 0-.637 1.54 7.29 7.29 0 0 0 .73 3.136 20.57 20.57 0 0 0 3.919 5.914 22.53 22.53 0 0 0 7.729 5.515c1.114.507 2.301.837 3.518.98l.488.043.229.02a2.47 2.47 0 0 0 1.86-.841c.295-.403.613-.787.954-1.151.083-.093.165-.18.247-.266.115-.123.23-.244.341-.376a1 1 0 0 0-.082-1.583l-2.909-2.663a1.11 1.11 0 0 0-.653-.339l-.1-.008a1.09 1.09 0 0 0-.739.417l-1.653 1.803a1.1 1.1 0 0 1-.757.385l-.13-.011a1 1 0 0 1-.372-.103l-.07-.006-.51-.246a5.917 5.917 0 0 1-.636-.306 18.49 18.49 0 0 1-4.678-3.893 11.303 11.303 0 0 1-1.78-2.595 1 1 0 0 1 .21-1.156c.419-.415.807-.833 1.218-1.289l.12-.135c.094-.107.19-.216.291-.32a1 1 0 0 0-.073-1.573L11.28 8.982l-.5-.465a18.01 18.01 0 0 0-.93-.864Z"/><path d="M23.471 3.428a.986.986 0 0 0-1.223.072L16.86 8.508l-.069.075a.618.618 0 0 0-.084.613l.042.084.053.076c.117.143.292.23.484.23l.896-.001v3.733l.008.143c.077.849.79 1.511 1.657 1.511h1.492l.116-.006a.998.998 0 0 0 .882-.985V9.857l.009-.06a.233.233 0 0 1 .224-.17h.673l.062.008a.234.234 0 0 1 .171.224v4.12l.008.117c.06.495.481.877.99.877h1.373l.145-.006.151-.02a1.698 1.698 0 0 0 1.4-1.659v-3.7h.995l.092-.006a.623.623 0 0 0 .247-1.14l-5.31-4.939-.096-.075Zm-4.6 4.917 4.034-3.75 4.031 3.745h-.018l.022.004-.085.005a.623.623 0 0 0-.565.611v4.326l-.008.08a.447.447 0 0 1-.442.361l-1.11.002V9.857l-.007-.143a1.485 1.485 0 0 0-1.477-1.333h-.681l-.142.007c-.75.071-1.337.7-1.342 1.467l.002 3.87-1.235.001-.082-.008a.413.413 0 0 1-.33-.402V8.963l-.009-.098a.627.627 0 0 0-.492-.512l-.065-.008Z"/></g></svg>