<svg xmlns="http://www.w3.org/2000/svg" width="36" height="36"><path fill="#3FCBFF" fill-rule="evenodd" d="m6.801 16.234.113.07.127.105 3.052 3.013c.4.394.4 1.039 0 1.432a1.026 1.026 0 0 1-1.217.167l-.116-.074-.11-.093-1.262-1.246.019.183c.565 4.948 4.7 8.832 9.778 9.108l.288.012.29.004c3.877 0 7.41-2.102 9.223-5.488a1.027 1.027 0 0 1 1.134-.508l.124.035.12.053c.5.26.692.876.427 1.37-2.169 4.047-6.394 6.56-11.026 6.56a12.471 12.471 0 0 1-8.813-3.601A12.157 12.157 0 0 1 5.345 19.7l-.013-.173-1.342 1.327a1.032 1.032 0 0 1-1.242.154l-.104-.07-.095-.084a1.002 1.002 0 0 1-.158-1.227l.07-.107.087-.097L5.6 16.409c.322-.317.812-.38 1.201-.175zm11.2-4.668c3.426 0 5.164 1.39 5.164 4.132l-.004.207c-.06 1.522-.826 3.819-4.873 3.922l-.288.004h-1.033v1.033h2.066a1.034 1.034 0 0 1 .121 2.06l-.12.006h-2.067v1.034a1.032 1.032 0 0 1-2.059.12l-.007-.12V22.93h-1.033a1.033 1.033 0 0 1-.12-2.059l.12-.007h1.033v-1.033h-1.033a1.032 1.032 0 0 1-.12-2.059l.12-.007h1.033v-5.166c0-.53.4-.967.913-1.026l.12-.007H18zm.233-5.941c3.329 0 6.46 1.28 8.814 3.603a12.147 12.147 0 0 1 3.607 7.634l.012.172 1.343-1.325c.295-.293.732-.37 1.11-.216l.124.06.108.07.098.085c.331.325.393.825.16 1.227l-.07.107-.087.099-3.053 3.013c-.196.19-.454.293-.721.293-.17 0-.336-.041-.493-.128l-.117-.073-.11-.093-3.052-3.012c-.4-.395-.4-1.038 0-1.432a1.027 1.027 0 0 1 1.234-.156l.108.07.098.085 1.263 1.246-.018-.183c-.566-4.948-4.701-8.832-9.779-9.108l-.288-.011-.29-.004c-3.877 0-7.41 2.102-9.22 5.487a1.03 1.03 0 0 1-1.381.42 1.009 1.009 0 0 1-.425-1.37c2.167-4.046 6.393-6.56 11.025-6.56zM18 13.632h-1.033v4.133H18c2.201 0 3.099-.599 3.099-2.067 0-1.612-.939-2.012-2.682-2.06L18 13.631z"/></svg>