<svg width="23" height="22" fill="none" xmlns="http://www.w3.org/2000/svg"><path fill-rule="evenodd" clip-rule="evenodd" d="M16.058 1.158A.688.688 0 1 0 15.01.266l-3.382 3.976-2.874-1.943a.688.688 0 0 0-.77 1.14l2.032 1.373H3.16A2.752 2.752 0 0 0 .41 7.564V18.56a2.752 2.752 0 0 0 2.751 2.752h16.498a2.752 2.752 0 0 0 2.752-2.752V7.564a2.752 2.752 0 0 0-2.752-2.752h-6.71l3.11-3.654ZM1.785 7.564c0-.76.616-1.376 1.375-1.376h16.498c.76 0 1.376.616 1.376 1.376V18.56c0 .76-.616 1.376-1.376 1.376H3.16c-.76 0-1.375-.616-1.375-1.376V7.564Z" fill="#fff"/><circle cx="11.409" cy="13.063" r="4.813" fill="#fff"/></svg>