<svg width="351" height="266" fill="none" xmlns="http://www.w3.org/2000/svg"><rect x="100.063" y="19.516" width="63.709" height="63.709" rx="31.854" transform="rotate(10 100.063 19.516)" fill="#3FCBFF"/><path fill="#1F2229" d="m104.862 48.349 5.087.897-1.644 9.326-5.087-.897zM114.19 49.993l5.087.897-1.645 9.326-5.087-.897zM124.113 48.246l5.088.897-2.84 16.11-5.088-.898zM134.785 42.26l5.088.897-5.532 31.37-5.087-.897zM142.766 51.535l5.088.897-2.841 16.11-5.087-.898z"/><path d="M160.493 63.517c-2.961 16.79 8.25 32.8 25.04 35.76l54.506 9.612c16.79 2.96 32.8-8.251 35.761-25.04l.342-1.94c2.96-16.79-8.251-32.8-25.04-35.76l-54.506-9.612c-16.79-2.96-32.801 8.25-35.761 25.04l-.342 1.94Z" fill="#FF4A9C"/><path d="M272.579 82.28c2.725-15.451-7.593-30.187-23.045-32.912l-47.479-8.372c-15.453-2.724-30.188 7.594-32.913 23.046-2.724 15.452 7.593 30.188 23.046 32.912l47.479 8.372c15.452 2.725 30.188-7.593 32.912-23.045Z" fill="url('#paint0_linear_1_599')"/><rect x="168.989" y="35.166" width="56.821" height="56.821" rx="28.41" transform="rotate(10 168.989 35.166)" fill="#1F2229"/><path d="m182.852 54.912 9.326 1.645-.755 4.284-9.327-1.644.756-4.285Zm-5.057 22.895-4.811-.849 4.068-23.068 4.811.848-4.068 23.069ZM196.405 76.672l3.098.547c2.405.424 4.11-.568 4.511-2.842.528-3-1.296-3.83-3.274-4.178l-3.098-.546.686-3.89 3.593.633c5.635.994 7.32 4.35 6.541 8.765-.657 3.725-3.321 7.467-9.385 6.398l-3.427-.604.755-4.283Zm12.704-17.13-.755 4.285-9.392-1.657.755-4.284 9.392 1.656Zm-19.259 20.39 4.067-23.068 4.812.848-4.068 23.069-4.811-.849Z" fill="#fff"/><rect x="57.099" y="79.764" width="182.295" height="63.709" rx="31.854" transform="rotate(10 57.099 79.764)" fill="#fff"/><rect x="61.301" y="84.271" width="114.801" height="55.903" rx="27.952" transform="rotate(10 61.3 84.271)" fill="#1F2229"/><g clip-path="url('#clip0_1_599')"><path d="m135.832 131.68-4.629-6.552 6.158-4.344a.197.197 0 0 0 .072-.092.195.195 0 0 0 .009-.117.205.205 0 0 0-.162-.155l-5.545-.977-5.585 4.068.864-4.901-5.059-.892-2.029 11.504 5.06.892.882-5.007 4.034 5.876 5.728 1.01a.202.202 0 0 0 .202-.313ZM114.654 116.431l-1.045 5.922-4.511-6.902-4.811-.848-2.029 11.507 4.811.848 1.044-5.922 4.512 6.902 4.82.85 2.029-11.507-4.82-.85ZM90.599 112.188l-3.578 6.6-1.223-7.446-5.358-.945-3.696 6.579-1.105-7.425-4.483-.791a.202.202 0 0 0-.234.23l1.866 11.922 5.882 1.038 3.56-6.327 1.184 7.163 5.882 1.037 5.83-10.565a.2.2 0 0 0 .007-.184.208.208 0 0 0-.06-.074.212.212 0 0 0-.087-.038l-4.387-.774ZM101.807 114.166l-5.059-.892-2.029 11.506 5.06.892 2.028-11.506Z" fill="#fff"/><path d="m148.427 116.814-5.849 4.095a.576.576 0 0 0-.141.799l4.425 6.319-6.349 4.449a.583.583 0 0 0-.237.371.583.583 0 0 0 .096.429l4.095 5.849a.576.576 0 0 0 .799.141l12.67-8.872a.577.577 0 0 0 .141-.8l-8.85-12.639a.574.574 0 0 0-.8-.141Z" fill="url('#paint1_linear_1_599')"/></g><path d="M172.645 132.804c2.662-15.095 17.057-25.175 32.152-22.513 15.095 2.662 25.175 17.057 22.513 32.152-2.662 15.095-17.056 25.175-32.152 22.513-15.095-2.661-25.175-17.056-22.513-32.152Z" fill="#1F2229"/><path d="m215.523 140.442-26.057 9.573 4.846-27.481 21.211 17.908Z" fill="#fff"/><rect width="63.709" height="63.709" rx="31.854" transform="scale(1 -1) rotate(-10 -884.272 -1395.847)" fill="#37C9FF"/><path fill-rule="evenodd" clip-rule="evenodd" d="m271.79 129.301-5.087-.897-3.082 17.477-17.357-3.061-.897 5.087 17.357 3.061-3.048 17.284 5.087.897 3.048-17.284 17.405 3.069.897-5.088-17.405-3.068 3.082-17.477Z" fill="#1F2229"/><path d="M72.015 182.928c3.055-17.325 19.577-28.894 36.902-25.839 17.325 3.055 28.894 19.577 25.839 36.902-3.055 17.325-19.576 28.894-36.902 25.839-17.325-3.055-28.894-19.576-25.839-36.902Z" fill="#FF4A9C"/><path fill="#1F2229" d="m89.419 168.513 15.482 2.73-2.73 15.482-15.482-2.73zM86.169 186.944l15.482 2.73-2.73 15.482-15.482-2.73zM104.6 190.194l15.482 2.73-2.73 15.482-15.482-2.73z"/><path fill-rule="evenodd" clip-rule="evenodd" d="m117.6 173.482-4.24-.748-1.011 5.733-5.369-.946-.748 4.239 5.37.947-.947 5.369 4.239.748.947-5.37 5.733 1.011.748-4.239-5.733-1.011 1.011-5.733Z" fill="#1F2229"/><path d="M138.147 194.589c-3.055 17.325 8.514 33.847 25.839 36.902l52.567 9.269c17.325 3.055 33.846-8.514 36.901-25.839 3.055-17.325-8.513-33.847-25.838-36.902l-52.567-9.269c-17.325-3.055-33.847 8.514-36.902 25.839Z" fill="#37C9FF"/><path d="M245.876 213.278c2.725-15.452-7.593-30.187-23.045-32.912l-48.328-8.521c-15.452-2.725-30.187 7.593-32.912 23.045-2.725 15.452 7.593 30.188 23.046 32.912l48.327 8.522c15.452 2.725 30.187-7.593 32.912-23.046Z" fill="url('#paint2_linear_1_599')"/><rect x="199.091" y="176.18" width="56.821" height="56.821" rx="28.41" transform="rotate(10 199.091 176.18)" fill="#1F2229"/><path fill-rule="evenodd" clip-rule="evenodd" d="M220.865 199.309a6.623 6.623 0 0 1-7.673 5.372 6.625 6.625 0 1 1 7.673-5.372Zm15.819 22.592a6.623 6.623 0 1 1-13.045-2.3 6.622 6.622 0 0 1 7.673-5.372 6.622 6.622 0 0 1 5.372 7.672Zm-30.719-2.893 1.807 2.582 30.556-21.396-1.807-2.58-30.556 21.394Z" fill="#fff"/><defs><linearGradient id="paint0_linear_1_599" x1="216.786" y1="73.18" x2="273.188" y2="83.891" gradientUnits="userSpaceOnUse"><stop stop-color="#E13583"/><stop offset="1" stop-color="#E13583" stop-opacity=".1"/></linearGradient><linearGradient id="paint1_linear_1_599" x1="135.14" y1="130.174" x2="164.166" y2="124.881" gradientUnits="userSpaceOnUse"><stop stop-color="#FF9532"/><stop offset=".17" stop-color="#FF8A1C"/><stop offset=".51" stop-color="#FF5B21"/><stop offset=".79" stop-color="#FF5A24"/></linearGradient><linearGradient id="paint2_linear_1_599" x1="227.705" y1="210.074" x2="141.591" y2="194.89" gradientUnits="userSpaceOnUse"><stop stop-color="#00AAE9"/><stop offset="1" stop-color="#00AAE9" stop-opacity=".1"/></linearGradient><clipPath id="clip0_1_599"><path fill="#fff" transform="rotate(10 -553.57 462.713)" d="M0 0h89.588v22.996H0z"/></clipPath></defs></svg>