<svg width="32" height="32" fill="none" xmlns="http://www.w3.org/2000/svg"><path d="M21.03 14.03a.75.75 0 1 0-1.06-1.06l-5.47 5.47-2.97-2.97a.75.75 0 1 0-1.06 1.06l3.5 3.5a.75.75 0 0 0 1.06 0l6-6Z" fill="#3FCBFF"/><path fill-rule="evenodd" clip-rule="evenodd" d="M16.53 2.47v-.001a.75.75 0 0 0-1.06 0l-.005.005-.027.026a9.848 9.848 0 0 1-.632.532c-.456.353-1.139.829-2.034 1.306C10.982 5.293 8.353 6.25 5 6.25a.75.75 0 0 0-.74.627v.005l-.003.012-.007.044a20.426 20.426 0 0 0-.098.762A29.67 29.67 0 0 0 4 9.848c-.063 1.788 0 4.225.515 6.8 1.03 5.149 3.904 10.966 11.279 13.073a.75.75 0 0 0 .412 0c7.375-2.107 10.25-7.924 11.28-13.074.514-2.574.577-5.01.514-6.799a29.67 29.67 0 0 0-.153-2.148 20.093 20.093 0 0 0-.098-.762l-.006-.044-.002-.012-.001-.005A.75.75 0 0 0 27 6.25c-3.353 0-5.983-.957-7.772-1.912a14.449 14.449 0 0 1-2.035-1.306 9.843 9.843 0 0 1-.658-.558l-.005-.004ZM27 7l.74-.123L27 7Zm-.658.739a17.881 17.881 0 0 1-7.82-2.077A15.946 15.946 0 0 1 16 3.999a15.946 15.946 0 0 1-2.522 1.663 17.881 17.881 0 0 1-7.82 2.077l-.014.124A28.174 28.174 0 0 0 5.5 9.902c-.062 1.712 0 4.025.485 6.45.96 4.8 3.541 9.926 10.015 11.866 6.474-1.94 9.055-7.065 10.015-11.865.485-2.426.547-4.74.485-6.451a28.211 28.211 0 0 0-.158-2.163Z" fill="#3FCBFF"/></svg>