<svg width="296" height="324" fill="none" xmlns="http://www.w3.org/2000/svg"><circle cx="173.819" cy="139.855" r="76.301" stroke="#3FCBFF" stroke-width="2" stroke-linecap="round"/><path d="M6.558 74.722c5.766 3.162 17.187 12.165 16.74 22.88v36.83c-.557 4.278 1.229 12.723 12.836 12.276h77.008c10.044-.558 15.402.447 21.205 8.929l7.254 8.928" stroke="#3FCBFF" stroke-width="2" stroke-linecap="round"/><path d="M245.464-37.371v96.154c-.209 6.285-3.394 20.99-14.454 29.538l-96.155 94.898c-4.399 3.142-8.17 3.771-14.455 5.027l-27.024 6.914c-9.427 1.675-29.16 12.317-32.68 41.478v86.099" stroke="url('#paint0_linear_76_5618')" stroke-width="2" stroke-linecap="round"/><path d="M46.241-38v85.47c-.628 7.542 1.634 26.02 15.712 39.594 14.078 13.575 32.68 27.862 40.222 33.308 4.399 3.771 17.974 9.679 37.079 3.143l30.166-6.285c5.866-1.466 19.86-2.891 28.909 3.142 9.05 6.034 38.965 34.775 51.534 47.135 3.143 2.933 11.941 10.056 11.941 18.854 0 3.771-3.771 10.055-5.656 12.569-3.882 5.177-6.913 16.969-6.913 30.795v89.87" stroke="url('#paint1_linear_76_5618')" stroke-width="2" stroke-linecap="round"/><path d="M90.862-38v88.613c-.419 7.542 2.389 25.893 16.969 38.965l88.613 93.641c3.98 3.77 11.815 15.46 11.312 32.051v78.23" stroke="#3FCBFF" stroke-width="2" stroke-linecap="round"/><path d="M126.685-37.371v72.273c-.419 5.865 1.382 20.11 11.94 30.166l20.74 23.881c4.608 5.866 10.558 20.74-2.514 33.309l-18.226 21.996c-3.98 5.447-9.552 19.859 0 33.937l18.226 18.225c3.142 5.028 2.514 12.57 2.514 20.74v87.356" stroke="url('#paint2_linear_76_5618')" stroke-width="2" stroke-linecap="round"/><path d="M134.105-19.083 160.5-4c2.933 2.514 7.538 34 7.035 44.558-.503 10.558-.21 29.538 0 37.708.628 7.541 5.623 21.367 20.739 21.367H202.1c2.514 0 8.422 1.383 11.941 6.913l52.001 52.997 1.815 28.281c1.533 5.201 7.114 14.687 16.572 19.276 3.291 1.597 10.055 10.056 10.055 32.68v71.645" stroke="#3FCBFF" stroke-width="2" stroke-linecap="round"/><path d="M220.326-37.371v69.13c-.21 3.771-3.142 13.45-13.198 21.996l-12.569 11.941c-5.656 6.494-13.324 23.002 1.257 37.08 8.798 5.656 13.197 20.554 13.197 37.707 0 17.597-4.399 46.632-37.079 57.19-4.609 1.257-24.51 1.886-24.51 1.886s-6.662.251-15.711 11.312l-23.254 28.909c-2.932 3.771-9.05 14.329-10.055 26.396v46.506" stroke="#3FCBFF" stroke-width="2" stroke-linecap="round"/><path d="M281.915-37.371V66.953c0 9.427-1.257 26.396-17.597 42.107l-33.308 32.052c-9.428 6.913-20.74 16.34-55.305 15.083H19.218c-4.609 0-13.7-3.268-13.198-16.34V-37.371M191.824 186.886h25.67c5.58-.372 18.332-3.138 26.227-8.928 8.371-6.138 32.331-28.49 40.736-37.946 4.465-5.022 7.813-11.719 7.813-18.415V97.044" stroke="#3FCBFF" stroke-width="2" stroke-linecap="round"/><circle cx="266.042" cy="159.543" r="3.348" fill="#3FCBFF"/><circle cx="261.578" cy="187.444" r="2.848" fill="#fff" stroke="#3FCBFF"/><circle cx="209.123" cy="138.338" r="2.848" fill="#fff" stroke="#3FCBFF"/><circle cx="268.274" cy="187.444" r="2.848" fill="#fff" stroke="#3FCBFF"/><circle cx="214.703" cy="134.989" r="2.848" fill="#fff" stroke="#3FCBFF"/><circle cx="258.23" cy="151.73" r="2.848" fill="#fff" stroke="#3FCBFF"/><path d="M261.578 187.444h6.696M208.007 138.338l6.696-3.349" stroke="#fff"/><circle cx="166.713" cy="153.962" r="6.696" fill="#3FCBFF"/><circle cx="244.837" cy="132.757" r="8.928" fill="#3FCBFF"/><circle cx="147.74" cy="126.061" r="6.696" fill="#3FCBFF"/><circle cx="166.713" cy="153.962" r="10.661" stroke="#3FCBFF"/><circle cx="244.837" cy="132.757" r="11.777" stroke="#3FCBFF"/><circle cx="147.74" cy="126.061" r="9.545" stroke="#3FCBFF"/><circle cx="204.659" cy="104.856" r="10.661" fill="#fff" stroke="#3FCBFF"/><circle cx="204.659" cy="104.856" r="7.312" fill="#3FCBFF" stroke="#3FCBFF"/><circle cx="190.15" cy="187.444" r="3.348" fill="#3FCBFF"/><circle cx="190.15" cy="187.444" r="5.08" stroke="#3FCBFF"/><circle cx="142.159" cy="165.123" r="3.348" fill="#3FCBFF"/><circle cx="5.58" cy="74.58" r="3.348" fill="#3FCBFF"/><circle cx="142.159" cy="165.123" r="5.08" stroke="#3FCBFF"/><circle cx="5.58" cy="74.58" r="5.08" stroke="#3FCBFF"/><circle cx="115.374" cy="189.676" r="3.348" fill="#3FCBFF"/><defs><linearGradient id="paint0_linear_76_5618" x1="147.96" y1="-3.636" x2="147.96" y2="305.522" gradientUnits="userSpaceOnUse"><stop offset=".005" stop-color="#3FCBFF" stop-opacity="0"/><stop offset=".504" stop-color="#3FCBFF"/><stop offset="1" stop-color="#3FCBFF" stop-opacity="0"/></linearGradient><linearGradient id="paint1_linear_76_5618" x1="148" y1="-4.5" x2="148" y2="302.5" gradientUnits="userSpaceOnUse"><stop offset=".005" stop-color="#3FCBFF" stop-opacity="0"/><stop offset=".504" stop-color="#3FCBFF"/><stop offset="1" stop-color="#3FCBFF" stop-opacity="0"/></linearGradient><linearGradient id="paint2_linear_76_5618" x1="144.656" y1="-5.343" x2="144.657" y2="288.168" gradientUnits="userSpaceOnUse"><stop offset=".005" stop-color="#3FCBFF" stop-opacity="0"/><stop offset=".504" stop-color="#3FCBFF"/><stop offset="1" stop-color="#3FCBFF" stop-opacity="0"/></linearGradient></defs></svg>