<svg width="23" height="22" fill="none" xmlns="http://www.w3.org/2000/svg"><path fill-rule="evenodd" clip-rule="evenodd" d="M1.784 9.666C1.784 4.336 6.12 0 11.449 0c5.33 0 9.666 4.336 9.666 9.666v5.24a1.935 1.935 0 0 1-1.933 1.934h-.644v.644a3.226 3.226 0 0 1-3.222 3.222h-2.044a1.936 1.936 0 0 1-1.822 1.29 1.935 1.935 0 0 1-1.934-1.934c0-1.066.868-1.933 1.934-1.933.84 0 1.556.539 1.822 1.289h2.044c.87 0 1.609-.58 1.85-1.372a1.935 1.935 0 0 1-2.494-1.85v-5.241c0-1.066.867-1.934 1.933-1.934.84 0 1.556.54 1.822 1.29h.755c.226 0 .443.039.645.11v-.755c0-4.62-3.758-8.377-8.378-8.377-4.619 0-8.377 3.758-8.377 8.377v.755c.202-.071.419-.11.645-.11h.755a1.936 1.936 0 0 1 1.822-1.29c1.066 0 1.934.868 1.934 1.934v5.24a1.935 1.935 0 0 1-1.934 1.934c-.84 0-1.556-.539-1.822-1.289h-.755a1.935 1.935 0 0 1-1.933-1.933V9.666Zm4.51.644a.645.645 0 0 0-.644.645v5.24a.645.645 0 0 0 1.289 0v-5.24a.645.645 0 0 0-.644-.645ZM3.718 11.6h.644v3.952h-.644a.645.645 0 0 1-.644-.644v-2.664c0-.355.289-.644.644-.644Zm7.088 8.463a.645.645 0 1 0 1.29-.001.645.645 0 0 0-1.29.001Zm6.444-3.866a.645.645 0 0 1-1.289 0v-5.241a.645.645 0 0 1 1.29 0v5.24Zm1.933-.645a.645.645 0 0 0 .645-.644v-2.664a.645.645 0 0 0-.645-.644h-.644v3.952h.644Z" fill="#fff"/></svg>