<svg width="22" height="22" fill="none" xmlns="http://www.w3.org/2000/svg"><g id="telegram"><g id="Union" fill="#4EA4F6"><path d="M13.68 7.63s-1.783.748-2.308.981c-1.371.585-5.324 2.245-5.324 2.245-.937.374-.388.725-.388.725s.8.28 1.485.49c.685.211 1.05-.022 1.05-.022s1.6-1.076 3.222-2.222c1.143-.795.869-.14.595.14a88.301 88.301 0 0 1-2.4 2.339c-.365.327-.182.608-.023.748.466.403 1.56 1.135 2.058 1.467.138.093.23.154.25.17.114.093.754.514 1.143.42.388-.093.434-.63.434-.63s.297-1.918.571-3.672c.05-.344.101-.68.149-.995.123-.817.223-1.48.24-1.717.068-.795-.755-.468-.755-.468Z"/><path d="M19.938 11a8.938 8.938 0 1 1-17.876 0 8.938 8.938 0 0 1 17.875 0Zm-1.375 0a7.562 7.562 0 1 0-15.125 0 7.562 7.562 0 0 0 15.124 0Z"/></g></g></svg>