<svg width="351" height="266" viewBox="0 0 351 266" fill="none" xmlns="http://www.w3.org/2000/svg">
<rect x="100.063" y="19.5159" width="63.7085" height="63.7085" rx="31.8542" transform="rotate(10 100.063 19.5159)" fill="#3FCBFF"/>
<rect x="104.862" y="48.3489" width="5.16555" height="9.47018" transform="rotate(10 104.862 48.3489)" fill="#1F2229"/>
<rect x="114.189" y="49.9934" width="5.16555" height="9.47018" transform="rotate(10 114.189 49.9934)" fill="#1F2229"/>
<rect x="124.113" y="48.2465" width="5.16555" height="16.3576" transform="rotate(10 124.113 48.2465)" fill="#1F2229"/>
<rect x="134.785" y="42.2604" width="5.16555" height="31.8542" transform="rotate(10 134.785 42.2604)" fill="#1F2229"/>
<rect x="142.766" y="51.5354" width="5.16555" height="16.3576" transform="rotate(10 142.766 51.5354)" fill="#1F2229"/>
<path d="M160.493 63.5169C157.532 80.3066 168.743 96.3173 185.533 99.2777L240.039 108.889C256.829 111.849 272.839 100.638 275.8 83.8487L276.142 81.9089C279.102 65.1192 267.891 49.1085 251.102 46.1481L196.596 36.5371C179.806 33.5767 163.795 44.7875 160.835 61.5772L160.493 63.5169Z" fill="#FF4A9C"/>
<path d="M272.579 82.2808C275.304 66.8285 264.986 52.0931 249.534 49.3684L202.055 40.9965C186.602 38.2719 171.867 48.5897 169.142 64.042C166.418 79.4943 176.735 94.2297 192.188 96.9544L239.667 105.326C255.119 108.051 269.855 97.7331 272.579 82.2808Z" fill="url(#paint0_linear_1_599)"/>
<rect x="168.989" y="35.1661" width="56.8211" height="56.8211" rx="28.4105" transform="rotate(10 168.989 35.1661)" fill="#1F2229"/>
<path d="M182.852 54.9124L192.178 56.5569L191.423 60.8412L182.096 59.1967L182.852 54.9124ZM177.795 77.8067L172.984 76.9584L177.052 53.8898L181.863 54.7381L177.795 77.8067Z" fill="white"/>
<path d="M196.405 76.6724L199.503 77.2187C201.908 77.6429 203.613 76.6514 204.014 74.3766C204.542 71.3777 202.718 70.5476 200.74 70.199L197.642 69.6527L198.328 65.7628L201.921 66.3962C207.556 67.3899 209.241 70.7459 208.462 75.161C207.805 78.886 205.141 82.6284 199.077 81.5593L195.65 80.9549L196.405 76.6724ZM209.109 59.5424L208.354 63.8266L198.962 62.1705L199.717 57.8863L209.109 59.5424ZM189.85 79.9322L193.917 56.8636L198.729 57.712L194.661 80.7806L189.85 79.9322Z" fill="white"/>
<rect x="57.0986" y="79.7643" width="182.295" height="63.7085" rx="31.8542" transform="rotate(10 57.0986 79.7643)" fill="white"/>
<rect x="61.3009" y="84.2711" width="114.801" height="55.9034" rx="27.9517" transform="rotate(10 61.3009 84.2711)" fill="#1F2229"/>
<g clip-path="url(#clip0_1_599)">
<path d="M135.832 131.68L131.203 125.128L137.361 120.784C137.394 120.761 137.419 120.729 137.433 120.692C137.448 120.655 137.451 120.614 137.442 120.575C137.433 120.536 137.413 120.501 137.384 120.473C137.356 120.446 137.319 120.427 137.28 120.42L131.735 119.443L126.15 123.511L127.014 118.61L121.955 117.718L119.926 129.222L124.986 130.114L125.868 125.107L129.902 130.983L135.63 131.993C135.669 132.001 135.71 131.996 135.747 131.981C135.784 131.965 135.815 131.939 135.837 131.905C135.858 131.871 135.87 131.832 135.869 131.792C135.868 131.752 135.855 131.713 135.832 131.68Z" fill="white"/>
<path d="M114.654 116.431L113.609 122.353L109.098 115.451L104.287 114.603L102.258 126.11L107.069 126.958L108.113 121.036L112.625 127.938L117.445 128.788L119.474 117.281L114.654 116.431Z" fill="white"/>
<path d="M90.5986 112.188L87.0212 118.788L85.7978 111.342L80.44 110.397L76.7436 116.976L75.6392 109.551L71.1559 108.76C71.1243 108.755 71.0918 108.757 71.0612 108.766C71.0305 108.776 71.0026 108.792 70.9797 108.815C70.9568 108.837 70.9397 108.865 70.9296 108.896C70.9196 108.926 70.9169 108.959 70.922 108.99L72.7876 120.912L78.6702 121.95L82.2303 115.623L83.4143 122.786L89.2961 123.823L95.1269 113.258C95.1425 113.23 95.1511 113.199 95.1521 113.167C95.1531 113.135 95.1464 113.103 95.1326 113.074C95.1188 113.045 95.0982 113.02 95.0727 113C95.0472 112.981 95.0174 112.968 94.9858 112.962L90.5986 112.188Z" fill="white"/>
<path d="M101.807 114.166L96.7482 113.274L94.7192 124.78L99.7785 125.672L101.807 114.166Z" fill="white"/>
<path d="M148.427 116.814L142.578 120.909C142.517 120.952 142.464 121.007 142.424 121.07C142.383 121.134 142.356 121.205 142.342 121.279C142.329 121.353 142.331 121.429 142.347 121.503C142.364 121.576 142.394 121.646 142.437 121.708L146.862 128.027L140.513 132.476C140.451 132.52 140.398 132.575 140.358 132.638C140.317 132.702 140.289 132.773 140.276 132.847C140.263 132.921 140.265 132.997 140.281 133.071C140.298 133.145 140.328 133.214 140.372 133.276L144.467 139.125C144.51 139.186 144.565 139.239 144.628 139.279C144.692 139.32 144.763 139.347 144.837 139.361C144.911 139.374 144.987 139.372 145.061 139.356C145.134 139.339 145.204 139.309 145.266 139.266L157.936 130.394C158.061 130.306 158.145 130.173 158.172 130.023C158.198 129.873 158.164 129.719 158.077 129.594L149.227 116.955C149.139 116.83 149.006 116.745 148.856 116.719C148.706 116.692 148.552 116.726 148.427 116.814Z" fill="url(#paint1_linear_1_599)"/>
</g>
<path d="M172.645 132.804C175.307 117.709 189.702 107.629 204.797 110.291C219.892 112.953 229.972 127.348 227.31 142.443C224.648 157.538 210.254 167.618 195.158 164.956C180.063 162.295 169.983 147.9 172.645 132.804Z" fill="#1F2229"/>
<path d="M215.523 140.442L189.466 150.015L194.312 122.534L215.523 140.442Z" fill="white"/>
<rect width="63.7085" height="63.7085" rx="31.8542" transform="matrix(0.984808 0.173648 0.173648 -0.984808 228.952 174.758)" fill="#37C9FF"/>
<path fill-rule="evenodd" clip-rule="evenodd" d="M271.79 129.301L266.703 128.404L263.621 145.881L246.264 142.82L245.367 147.907L262.724 150.968L259.676 168.252L264.763 169.149L267.811 151.865L285.216 154.934L286.113 149.846L268.708 146.778L271.79 129.301Z" fill="#1F2229"/>
<path d="M72.0154 182.928C75.0703 165.603 91.5918 154.034 108.917 157.089C126.242 160.144 137.811 176.666 134.756 193.991C131.701 211.316 115.18 222.885 97.8542 219.83C80.5289 216.775 68.9605 200.254 72.0154 182.928Z" fill="#FF4A9C"/>
<rect x="89.4186" y="168.513" width="15.7212" height="15.7212" transform="rotate(10 89.4186 168.513)" fill="#1F2229"/>
<rect x="86.1687" y="186.944" width="15.7212" height="15.7212" transform="rotate(10 86.1687 186.944)" fill="#1F2229"/>
<rect x="104.6" y="190.194" width="15.7212" height="15.7212" transform="rotate(10 104.6 190.194)" fill="#1F2229"/>
<path fill-rule="evenodd" clip-rule="evenodd" d="M117.6 173.482L113.36 172.734L112.349 178.467L106.98 177.521L106.232 181.76L111.602 182.707L110.655 188.076L114.894 188.824L115.841 183.454L121.574 184.465L122.322 180.226L116.589 179.215L117.6 173.482Z" fill="#1F2229"/>
<path d="M138.147 194.589C135.092 211.914 146.661 228.436 163.986 231.491L216.553 240.76C233.878 243.815 250.399 232.246 253.454 214.921C256.509 197.596 244.941 181.074 227.616 178.019L175.049 168.75C157.724 165.695 141.202 177.264 138.147 194.589Z" fill="#37C9FF"/>
<path d="M245.876 213.278C248.601 197.826 238.283 183.091 222.831 180.366L174.503 171.845C159.051 169.12 144.316 179.438 141.591 194.89C138.866 210.342 149.184 225.078 164.637 227.802L212.964 236.324C228.416 239.049 243.151 228.731 245.876 213.278Z" fill="url(#paint2_linear_1_599)"/>
<rect x="199.091" y="176.18" width="56.8211" height="56.8211" rx="28.4105" transform="rotate(10 199.091 176.18)" fill="#1F2229"/>
<path fill-rule="evenodd" clip-rule="evenodd" d="M220.865 199.309C220.23 202.911 216.795 205.316 213.192 204.681C209.589 204.046 207.184 200.611 207.819 197.009C208.455 193.405 211.89 190.999 215.492 191.634C219.095 192.27 221.5 195.705 220.865 199.309ZM236.684 221.901C236.049 225.505 232.614 227.911 229.012 227.275C225.409 226.64 223.003 223.205 223.639 219.601C224.274 215.999 227.709 213.593 231.312 214.229C234.914 214.864 237.32 218.299 236.684 221.901ZM205.965 219.008L207.772 221.59L238.328 200.194L236.521 197.614L205.965 219.008Z" fill="white"/>
<defs>
<linearGradient id="paint0_linear_1_599" x1="216.786" y1="73.1804" x2="273.188" y2="83.8908" gradientUnits="userSpaceOnUse">
<stop stop-color="#E13583"/>
<stop offset="1" stop-color="#E13583" stop-opacity="0.1"/>
</linearGradient>
<linearGradient id="paint1_linear_1_599" x1="135.14" y1="130.174" x2="164.166" y2="124.881" gradientUnits="userSpaceOnUse">
<stop stop-color="#FF9532"/>
<stop offset="0.17" stop-color="#FF8A1C"/>
<stop offset="0.51" stop-color="#FF5B21"/>
<stop offset="0.79" stop-color="#FF5A24"/>
</linearGradient>
<linearGradient id="paint2_linear_1_599" x1="227.705" y1="210.074" x2="141.591" y2="194.89" gradientUnits="userSpaceOnUse">
<stop stop-color="#00AAE9"/>
<stop offset="1" stop-color="#00AAE9" stop-opacity="0.1"/>
</linearGradient>
<clipPath id="clip0_1_599">
<rect width="89.5878" height="22.9958" fill="white" transform="translate(71.9393 103.156) rotate(10)"/>
</clipPath>
</defs>
</svg>
