<svg width="296" height="324" viewBox="0 0 296 324" fill="none" xmlns="http://www.w3.org/2000/svg">
<circle cx="173.819" cy="139.855" r="76.3009" stroke="#3FCBFF" stroke-width="2" stroke-linecap="round"/>
<path d="M6.55803 74.7222C12.3243 77.8844 23.7454 86.8873 23.2989 97.6015V134.432C22.7409 138.71 24.5266 147.155 36.1337 146.708H113.142C123.186 146.15 128.544 147.155 134.347 155.637L141.601 164.565" stroke="#3FCBFF" stroke-width="2" stroke-linecap="round"/>
<path d="M245.464 -37.3715V58.7832C245.255 65.0678 242.07 79.7738 231.01 88.3209L134.855 183.219C130.456 186.361 126.685 186.99 120.4 188.246L93.3763 195.16C83.9494 196.835 64.2157 207.477 60.6963 236.638V322.737" stroke="url(#paint0_linear_76_5618)" stroke-width="2" stroke-linecap="round"/>
<path d="M46.2414 -38V47.4709C45.613 55.0124 47.8754 73.4892 61.953 87.064C76.0305 100.639 94.6331 114.926 102.175 120.372C106.574 124.143 120.149 130.051 139.254 123.515L169.42 117.23C175.286 115.764 189.28 114.339 198.329 120.372C207.379 126.406 237.294 155.147 249.863 167.507C253.006 170.44 261.804 177.563 261.804 186.361C261.804 190.132 258.033 196.416 256.148 198.93C252.266 204.107 249.235 215.899 249.235 229.725V319.595" stroke="url(#paint1_linear_76_5618)" stroke-width="2" stroke-linecap="round"/>
<path d="M90.8624 -38V50.6132C90.4434 58.1547 93.2505 76.5058 107.831 89.5778L196.444 183.219C200.424 186.989 208.259 198.679 207.756 215.27V293.5" stroke="#3FCBFF" stroke-width="2" stroke-linecap="round"/>
<path d="M126.685 -37.3715V34.9016C126.266 40.7673 128.067 55.0124 138.625 65.0678L159.365 88.9494C163.973 94.8151 169.923 109.689 156.851 122.258L138.625 144.254C134.645 149.701 129.073 164.113 138.625 178.191L156.851 196.416C159.993 201.444 159.365 208.986 159.365 217.156V304.512" stroke="url(#paint2_linear_76_5618)" stroke-width="2" stroke-linecap="round"/>
<path d="M134.105 -19.0831L160.5 -3.99997C163.433 -1.48612 168.038 29.9996 167.535 40.5578C167.032 51.1159 167.325 70.0955 167.535 78.2655C168.163 85.8071 173.158 99.6333 188.274 99.6333C195.816 99.6333 202.1 99.6333 202.1 99.6333C204.614 99.6333 210.522 101.016 214.041 106.546L266.042 159.543L267.857 187.824C269.39 193.025 274.971 202.511 284.429 207.1C287.72 208.697 294.484 217.156 294.484 239.78V311.425" stroke="#3FCBFF" stroke-width="2" stroke-linecap="round"/>
<path d="M220.326 -37.3715V31.7593C220.116 35.5301 217.184 45.2084 207.128 53.7555L194.559 65.6963C188.903 72.1904 181.235 88.698 195.816 102.776C204.614 108.432 209.013 123.33 209.013 140.483C209.013 158.08 204.614 187.115 171.934 197.673C167.325 198.93 147.424 199.559 147.424 199.559C147.424 199.559 140.762 199.81 131.713 210.871L108.459 239.78C105.527 243.551 99.4096 254.109 98.404 266.176V312.682" stroke="#3FCBFF" stroke-width="2" stroke-linecap="round"/>
<path d="M281.915 -37.3715V66.9532C281.915 76.3801 280.658 93.3486 264.318 109.06L231.01 141.112C221.582 148.025 210.27 157.452 175.705 156.195H19.2177C14.609 156.195 5.51725 152.927 6.02002 139.855V-37.3715" stroke="#3FCBFF" stroke-width="2" stroke-linecap="round"/>
<path d="M191.824 186.886H217.494C223.074 186.514 235.826 183.748 243.721 177.958C252.092 171.82 276.052 149.468 284.457 140.012C288.922 134.99 292.27 128.293 292.27 121.597C292.27 114.9 292.27 102.438 292.27 97.0435" stroke="#3FCBFF" stroke-width="2" stroke-linecap="round"/>
<circle cx="266.042" cy="159.543" r="3.34818" fill="#3FCBFF"/>
<circle cx="261.578" cy="187.444" r="2.84818" fill="white" stroke="#3FCBFF"/>
<circle cx="209.123" cy="138.338" r="2.84818" fill="white" stroke="#3FCBFF"/>
<circle cx="268.274" cy="187.444" r="2.84818" fill="white" stroke="#3FCBFF"/>
<circle cx="214.703" cy="134.989" r="2.84818" fill="white" stroke="#3FCBFF"/>
<circle cx="258.23" cy="151.73" r="2.84818" fill="white" stroke="#3FCBFF"/>
<path d="M261.578 187.444H268.274" stroke="white"/>
<path d="M208.007 138.338L214.703 134.989" stroke="white"/>
<circle cx="166.713" cy="153.962" r="6.69637" fill="#3FCBFF"/>
<circle cx="244.837" cy="132.757" r="8.92849" fill="#3FCBFF"/>
<circle cx="147.74" cy="126.061" r="6.69637" fill="#3FCBFF"/>
<circle cx="166.713" cy="153.962" r="10.6606" stroke="#3FCBFF"/>
<circle cx="244.837" cy="132.757" r="11.7767" stroke="#3FCBFF"/>
<circle cx="147.74" cy="126.061" r="9.54455" stroke="#3FCBFF"/>
<circle cx="204.659" cy="104.856" r="10.6606" fill="white" stroke="#3FCBFF"/>
<circle cx="204.659" cy="104.856" r="7.31243" fill="#3FCBFF" stroke="#3FCBFF"/>
<circle cx="190.15" cy="187.444" r="3.34818" fill="#3FCBFF"/>
<circle cx="190.15" cy="187.444" r="5.08031" stroke="#3FCBFF"/>
<circle cx="142.159" cy="165.123" r="3.34818" fill="#3FCBFF"/>
<circle cx="5.5803" cy="74.5804" r="3.34818" fill="#3FCBFF"/>
<circle cx="142.159" cy="165.123" r="5.08031" stroke="#3FCBFF"/>
<circle cx="5.58031" cy="74.5803" r="5.08031" stroke="#3FCBFF"/>
<circle cx="115.374" cy="189.676" r="3.34818" fill="#3FCBFF"/>
<defs>
<linearGradient id="paint0_linear_76_5618" x1="147.96" y1="-3.63602" x2="147.96" y2="305.522" gradientUnits="userSpaceOnUse">
<stop offset="0.00520833" stop-color="#3FCBFF" stop-opacity="0"/>
<stop offset="0.504138" stop-color="#3FCBFF"/>
<stop offset="1" stop-color="#3FCBFF" stop-opacity="0"/>
</linearGradient>
<linearGradient id="paint1_linear_76_5618" x1="148" y1="-4.5" x2="148" y2="302.5" gradientUnits="userSpaceOnUse">
<stop offset="0.00520833" stop-color="#3FCBFF" stop-opacity="0"/>
<stop offset="0.504138" stop-color="#3FCBFF"/>
<stop offset="1" stop-color="#3FCBFF" stop-opacity="0"/>
</linearGradient>
<linearGradient id="paint2_linear_76_5618" x1="144.656" y1="-5.3434" x2="144.657" y2="288.168" gradientUnits="userSpaceOnUse">
<stop offset="0.00520833" stop-color="#3FCBFF" stop-opacity="0"/>
<stop offset="0.504138" stop-color="#3FCBFF"/>
<stop offset="1" stop-color="#3FCBFF" stop-opacity="0"/>
</linearGradient>
</defs>
</svg>
